<svg width="106" height="93" viewBox="0 0 106 93" fill="none" xmlns="http://www.w3.org/2000/svg">
<g clip-path="url(#clip0_182_91)">
<path d="M7.35811 76.2295C3.73154 76.2295 0.00244141 79.1393 0.00244141 84.2325C0.00244141 88.8886 3.28117 92.1774 7.35811 92.1774C10.7234 92.1774 12.2233 89.9157 12.2233 89.9157V90.9016C12.2233 91.3675 12.6633 91.8875 13.2079 91.8875H15.6404V76.5775H12.2233V78.5202C12.2233 78.5202 10.7108 76.2295 7.35811 76.2295ZM7.96683 79.3601C10.9523 79.3601 12.5183 81.989 12.5183 84.2313C12.5183 86.7289 10.6589 89.1009 7.97316 89.1009C5.72802 89.1009 3.47904 87.2803 3.47904 84.1984C3.47904 81.4164 5.41443 79.3601 7.96683 79.3601Z" fill="white"/>
<path d="M20.3899 91.8872C19.8649 91.8872 19.4053 91.5101 19.4053 90.9013V76.5772H22.8224V78.4718C23.5968 77.3064 25.1096 76.2246 27.4316 76.2246C31.2268 76.2246 33.2478 79.2539 33.2478 82.0865V91.8872H30.8731C30.2505 91.8872 29.8306 91.3653 29.8306 90.8433V82.8404C29.8306 81.2703 28.8698 79.3634 26.6478 79.3634C24.2501 79.3634 22.8225 81.6322 22.8225 83.7683V91.8872L20.3899 91.8872Z" fill="white"/>
<path d="M43.2095 76.2294C39.5829 76.2294 35.8539 79.1392 35.8539 84.2324C35.8539 88.8885 39.1326 92.1773 43.2095 92.1773C46.5748 92.1773 48.0746 89.9156 48.0746 89.9156V90.9015C48.0746 91.3675 48.5146 91.8874 49.0593 91.8874H51.4918V68.9224H48.0746V78.5201C48.0746 78.5201 46.5622 76.2294 43.2095 76.2294ZM43.8182 79.36C46.8036 79.36 48.3697 81.9889 48.3697 84.2313C48.3697 86.7288 46.5103 89.1008 43.8245 89.1008C41.5794 89.1008 39.3304 87.2802 39.3304 84.1983C39.3304 81.4163 41.2658 79.36 43.8182 79.36Z" fill="white"/>
<path d="M56.2412 91.8873C55.7162 91.8873 55.2566 91.5102 55.2566 90.9014V76.5773H58.6738V79.129C59.262 77.6995 60.5312 76.4033 62.786 76.4033C63.4146 76.4033 64.0023 76.5193 64.0023 76.5193V80.0568C64.0023 80.0568 63.2684 79.7669 62.3806 79.7669C59.9829 79.7669 58.6738 82.0357 58.6738 84.1718V91.8873H56.2412Z" fill="white"/>
<path d="M84.7369 91.8871C84.2119 91.8871 83.7523 91.5101 83.7523 90.9012V76.5771H87.1695V91.8871L84.7369 91.8871Z" fill="white"/>
<path d="M97.1893 76.2294C93.5627 76.2294 89.8336 79.1392 89.8336 84.2324C89.8336 88.8885 93.1124 92.1773 97.1893 92.1773C100.555 92.1773 102.054 89.9156 102.054 89.9156V90.9015C102.054 91.3675 102.494 91.8874 103.039 91.8874H105.472V68.9224H102.054V78.5201C102.054 78.5201 100.542 76.2294 97.1893 76.2294ZM97.798 79.36C100.783 79.36 102.349 81.9889 102.349 84.2313C102.349 86.7288 100.49 89.1008 97.8043 89.1008C95.5592 89.1008 93.3102 87.2802 93.3102 84.1983C93.3102 81.4163 95.2456 79.36 97.798 79.36Z" fill="white"/>
<path d="M85.4368 73.2757C86.6847 73.2757 87.6963 72.2628 87.6963 71.0133C87.6963 69.7639 86.6847 68.751 85.4368 68.751C84.189 68.751 83.1774 69.7639 83.1774 71.0133C83.1774 72.2628 84.189 73.2757 85.4368 73.2757Z" fill="white"/>
<path d="M73.0145 76.2241C69.2165 76.2241 65.0438 79.0628 65.0438 84.205C65.0438 88.8909 68.598 92.1777 73.0062 92.1777C78.439 92.1777 81.0917 87.8048 81.0917 84.2346C81.0917 79.8538 77.6758 76.2241 73.0145 76.2241ZM73.0269 79.4194C75.6533 79.4194 77.6124 81.5389 77.6124 84.2146C77.6124 86.9367 75.5328 89.0373 73.0347 89.0373C70.7158 89.0373 68.4617 87.1477 68.4617 84.2604C68.4617 81.3249 70.6056 79.4194 73.0269 79.4194Z" fill="white"/>
<path d="M78.4762 17.8297L87.2193 2.6648C87.7127 1.81465 87.4143 0.734721 86.5767 0.240713C85.7392 -0.253288 84.6491 0.0339164 84.1672 0.884068L75.3094 16.2442C68.5513 13.1538 60.9441 11.4305 52.7632 11.4305C44.5823 11.4305 36.9751 13.1538 30.217 16.2442L21.3591 0.884068C20.8658 0.0339164 19.7872 -0.253288 18.9381 0.240713C18.0891 0.734721 17.8022 1.81465 18.2956 2.6648L27.0387 17.8297C11.962 26.0095 1.75022 41.2893 0.0635986 59.1768H105.463C103.776 41.2891 93.5643 26.0094 78.4762 17.8297ZM28.5647 44.3567C26.1208 44.3567 24.1473 42.3692 24.1473 39.9336C24.1473 37.4865 26.1323 35.5105 28.5647 35.5105C31.0087 35.5105 32.9822 37.498 32.9822 39.9336C32.9937 42.3692 31.0087 44.3567 28.5647 44.3567ZM76.9503 44.3567C74.5063 44.3567 72.5328 42.3692 72.5328 39.9336C72.5328 37.4865 74.5178 35.5105 76.9503 35.5105C79.3942 35.5105 81.3677 37.498 81.3677 39.9336C81.3792 42.3692 79.3942 44.3567 76.9503 44.3567Z" fill="#32DE84"/>
<circle cx="76.9108" cy="39.8691" r="4.52416" fill="white"/>
<circle cx="28.5587" cy="39.8691" r="4.52416" fill="white"/>
</g>
<defs>
<clipPath id="clip0_182_91">
<rect width="105.469" height="92.1797" fill="white"/>
</clipPath>
</defs>
</svg>
