<svg width="25" height="25" viewBox="0 0 25 25" fill="none" xmlns="http://www.w3.org/2000/svg">
<path d="M9.99568 0.197081C6.67467 0.957148 3.95254 2.84614 2.07971 5.70757C-1.19774 10.7486 -0.544427 17.511 3.63677 21.8255C4.88895 23.1221 6.79445 24.3739 8.23173 24.8546C8.76527 25.0334 8.8306 25.0334 9.07015 24.8657C9.33148 24.6869 9.34236 24.6422 9.34236 23.3568V22.0378L8.38417 22.0937C7.26265 22.1496 6.39157 21.9484 5.86892 21.4901C5.68382 21.3337 5.32449 20.7971 5.07406 20.3053C4.66029 19.4782 4.35541 19.0982 3.50611 18.3269C3.22301 18.0698 3.21212 18.0587 3.40811 17.9134C3.87632 17.5557 4.82362 17.9022 5.42249 18.6399C6.46779 19.9477 6.87067 20.2942 7.46954 20.4283C8.00307 20.5401 8.49306 20.4954 9.23348 20.2718C9.33148 20.2383 9.46214 20.0035 9.52747 19.7353C9.5928 19.4782 9.76702 19.087 9.90857 18.8746L10.1699 18.4834L9.28792 18.3046C7.43687 17.9134 6.29357 17.2315 5.54227 16.0691C4.8454 14.996 4.61674 14.0683 4.60585 12.3358C4.60585 10.7039 4.78007 10.0332 5.46605 9.11669C5.77092 8.71431 5.80359 8.59135 5.71648 8.35663C5.55315 7.95424 5.59671 6.25526 5.77092 5.7411C5.91247 5.36107 5.98869 5.294 6.28268 5.26047C6.77267 5.20458 7.68731 5.52873 8.61283 6.06525L9.4077 6.5347L10.1046 6.36704C11.0954 6.13231 14.068 6.14349 14.9608 6.36704L15.6359 6.54588L16.2675 6.15467C17.1059 5.6405 18.173 5.23812 18.7065 5.23812C19.1312 5.23812 19.1312 5.24929 19.3054 5.81934C19.4905 6.47881 19.5231 7.6748 19.3598 8.24485C19.2727 8.58018 19.2945 8.68077 19.534 9.00492C20.7209 10.6145 20.8515 13.2859 19.8498 15.4767C19.1747 16.9186 17.7483 17.9245 15.8319 18.2934L14.9173 18.4722L15.2548 19.087L15.6033 19.7129L15.6359 22.2055L15.6795 24.6981L15.9517 24.8769C16.2021 25.0446 16.2566 25.0446 16.7792 24.8546C17.6503 24.5528 19.142 23.7256 19.9587 23.0885C24.815 19.3553 26.3829 12.66 23.6935 7.09357C22.1146 3.81858 19.1312 1.30365 15.7122 0.364742C14.2204 -0.0376464 11.4112 -0.127066 9.99568 0.197081Z" fill="#F9F9F9"/>
</svg>
