<svg width="45" height="45" viewBox="0 0 45 45" fill="none" xmlns="http://www.w3.org/2000/svg">
<rect width="45" height="45" rx="4" fill="#434343"/>
<g clip-path="url(#clip0_267_56)">
<path d="M14.7781 33.874V17.4283H9.20388V33.874H14.7781ZM11.9917 15.1815C13.9356 15.1815 15.1455 13.9187 15.1455 12.3405C15.1093 10.7268 13.9356 9.49902 12.0286 9.49902C10.1219 9.49902 8.875 10.7268 8.875 12.3405C8.875 13.9187 10.0846 15.1815 11.9553 15.1815H11.9915H11.9917ZM17.8634 33.874H23.4377V24.6899C23.4377 24.1984 23.4739 23.7074 23.6211 23.356C24.0241 22.374 24.9413 21.3569 26.4811 21.3569C28.4982 21.3569 29.3051 22.865 29.3051 25.0758V33.8739H34.879V24.4441C34.879 19.3926 32.129 17.0422 28.4615 17.0422C25.4544 17.0422 24.1341 18.6904 23.4006 19.8131H23.4378V17.4279H17.8636C17.9367 18.9711 17.8636 33.8737 17.8636 33.8737L17.8634 33.874Z" fill="white"/>
</g>
<defs>
<clipPath id="clip0_267_56">
<rect x="8.875" y="9.49902" width="26" height="24.375" rx="4" fill="white"/>
</clipPath>
</defs>
</svg>
