<svg width="1117" height="345" viewBox="0 0 1117 345" fill="none" xmlns="http://www.w3.org/2000/svg">
<g opacity="0.1">
<circle cx="3.5" cy="3.5" r="3.5" transform="matrix(-1 0 0 1 7 52)" fill="white"/>
<circle cx="3.5" cy="3.5" r="3.5" transform="matrix(-1 0 0 1 573 52)" fill="white"/>
<circle cx="3.5" cy="3.5" r="3.5" transform="matrix(-1 0 0 1 290.776 52)" fill="white"/>
<circle cx="3.5" cy="3.5" r="3.5" transform="matrix(-1 0 0 1 856.776 52)" fill="white"/>
<circle cx="3.5" cy="3.5" r="3.5" transform="matrix(-1 0 0 1 7 182)" fill="white"/>
<circle cx="3.5" cy="3.5" r="3.5" transform="matrix(-1 0 0 1 573 182)" fill="white"/>
<circle cx="3.5" cy="3.5" r="3.5" transform="matrix(-1 0 0 1 290.776 182)" fill="white"/>
<circle cx="3.5" cy="3.5" r="3.5" transform="matrix(-1 0 0 1 856.776 182)" fill="white"/>
<circle cx="3.5" cy="3.5" r="3.5" transform="matrix(-1 0 0 1 7 312)" fill="white"/>
<circle cx="3.5" cy="3.5" r="3.5" transform="matrix(-1 0 0 1 573 312)" fill="white"/>
<circle cx="3.5" cy="3.5" r="3.5" transform="matrix(-1 0 0 1 290.776 312)" fill="white"/>
<circle cx="3.5" cy="3.5" r="3.5" transform="matrix(-1 0 0 1 856.776 312)" fill="white"/>
<circle cx="3.5" cy="3.5" r="3.5" transform="matrix(-1 0 0 1 77.9438 52)" fill="white"/>
<circle cx="3.5" cy="3.5" r="3.5" transform="matrix(-1 0 0 1 643.944 52)" fill="white"/>
<circle cx="3.5" cy="3.5" r="3.5" transform="matrix(-1 0 0 1 361.72 52)" fill="white"/>
<circle cx="3.5" cy="3.5" r="3.5" transform="matrix(-1 0 0 1 927.72 52)" fill="white"/>
<circle cx="3.5" cy="3.5" r="3.5" transform="matrix(-1 0 0 1 77.9438 182)" fill="white"/>
<circle cx="3.5" cy="3.5" r="3.5" transform="matrix(-1 0 0 1 643.944 182)" fill="white"/>
<circle cx="3.5" cy="3.5" r="3.5" transform="matrix(-1 0 0 1 361.72 182)" fill="white"/>
<circle cx="3.5" cy="3.5" r="3.5" transform="matrix(-1 0 0 1 927.72 182)" fill="white"/>
<circle cx="3.5" cy="3.5" r="3.5" transform="matrix(-1 0 0 1 77.9438 312)" fill="white"/>
<circle cx="3.5" cy="3.5" r="3.5" transform="matrix(-1 0 0 1 643.944 312)" fill="white"/>
<circle cx="3.5" cy="3.5" r="3.5" transform="matrix(-1 0 0 1 361.72 312)" fill="white"/>
<circle cx="3.5" cy="3.5" r="3.5" transform="matrix(-1 0 0 1 927.72 312)" fill="white"/>
<circle cx="3.5" cy="3.5" r="3.5" transform="matrix(-1 0 0 1 148.888 52)" fill="white"/>
<circle cx="3.5" cy="3.5" r="3.5" transform="matrix(-1 0 0 1 714.888 52)" fill="white"/>
<circle cx="3.5" cy="3.5" r="3.5" transform="matrix(-1 0 0 1 432.665 52)" fill="white"/>
<circle cx="3.5" cy="3.5" r="3.5" transform="matrix(-1 0 0 1 998.665 52)" fill="white"/>
<circle cx="3.5" cy="3.5" r="3.5" transform="matrix(-1 0 0 1 148.888 182)" fill="white"/>
<circle cx="3.5" cy="3.5" r="3.5" transform="matrix(-1 0 0 1 714.888 182)" fill="white"/>
<circle cx="3.5" cy="3.5" r="3.5" transform="matrix(-1 0 0 1 432.665 182)" fill="white"/>
<circle cx="3.5" cy="3.5" r="3.5" transform="matrix(-1 0 0 1 998.665 182)" fill="white"/>
<circle cx="3.5" cy="3.5" r="3.5" transform="matrix(-1 0 0 1 148.888 312)" fill="white"/>
<circle cx="3.5" cy="3.5" r="3.5" transform="matrix(-1 0 0 1 714.888 312)" fill="white"/>
<circle cx="3.5" cy="3.5" r="3.5" transform="matrix(-1 0 0 1 432.665 312)" fill="white"/>
<circle cx="3.5" cy="3.5" r="3.5" transform="matrix(-1 0 0 1 998.665 312)" fill="white"/>
<circle cx="3.5" cy="3.5" r="3.5" transform="matrix(-1 0 0 1 219.832 52)" fill="white"/>
<circle cx="3.5" cy="3.5" r="3.5" transform="matrix(-1 0 0 1 785.832 52)" fill="white"/>
<circle cx="3.5" cy="3.5" r="3.5" transform="matrix(-1 0 0 1 503.609 52)" fill="white"/>
<circle cx="3.5" cy="3.5" r="3.5" transform="matrix(-1 0 0 1 1069.61 52)" fill="white"/>
<circle cx="3.5" cy="3.5" r="3.5" transform="matrix(-1 0 0 1 219.832 182)" fill="white"/>
<circle cx="3.5" cy="3.5" r="3.5" transform="matrix(-1 0 0 1 785.832 182)" fill="white"/>
<circle cx="3.5" cy="3.5" r="3.5" transform="matrix(-1 0 0 1 503.609 182)" fill="white"/>
<circle cx="3.5" cy="3.5" r="3.5" transform="matrix(-1 0 0 1 1069.61 182)" fill="white"/>
<circle cx="3.5" cy="3.5" r="3.5" transform="matrix(-1 0 0 1 219.832 312)" fill="white"/>
<circle cx="3.5" cy="3.5" r="3.5" transform="matrix(-1 0 0 1 785.832 312)" fill="white"/>
<circle cx="3.5" cy="3.5" r="3.5" transform="matrix(-1 0 0 1 503.609 312)" fill="white"/>
<circle cx="3.5" cy="3.5" r="3.5" transform="matrix(-1 0 0 1 1069.61 312)" fill="white"/>
<circle cx="3.5" cy="3.5" r="3.5" transform="matrix(-1 0 0 1 7 78)" fill="white"/>
<circle cx="3.5" cy="3.5" r="3.5" transform="matrix(-1 0 0 1 573 78)" fill="white"/>
<circle cx="3.5" cy="3.5" r="3.5" transform="matrix(-1 0 0 1 290.776 78)" fill="white"/>
<circle cx="3.5" cy="3.5" r="3.5" transform="matrix(-1 0 0 1 856.776 78)" fill="white"/>
<circle cx="3.5" cy="3.5" r="3.5" transform="matrix(-1 0 0 1 7 208)" fill="white"/>
<circle cx="3.5" cy="3.5" r="3.5" transform="matrix(-1 0 0 1 573 208)" fill="white"/>
<circle cx="3.5" cy="3.5" r="3.5" transform="matrix(-1 0 0 1 290.776 208)" fill="white"/>
<circle cx="3.5" cy="3.5" r="3.5" transform="matrix(-1 0 0 1 856.776 208)" fill="white"/>
<circle cx="3.5" cy="3.5" r="3.5" transform="matrix(-1 0 0 1 7 338)" fill="white"/>
<circle cx="3.5" cy="3.5" r="3.5" transform="matrix(-1 0 0 1 573 338)" fill="white"/>
<circle cx="3.5" cy="3.5" r="3.5" transform="matrix(-1 0 0 1 290.776 338)" fill="white"/>
<circle cx="3.5" cy="3.5" r="3.5" transform="matrix(-1 0 0 1 856.776 338)" fill="white"/>
<circle cx="3.5" cy="3.5" r="3.5" transform="matrix(-1 0 0 1 77.9438 78)" fill="white"/>
<circle cx="3.5" cy="3.5" r="3.5" transform="matrix(-1 0 0 1 643.944 78)" fill="white"/>
<circle cx="3.5" cy="3.5" r="3.5" transform="matrix(-1 0 0 1 361.72 78)" fill="white"/>
<circle cx="3.5" cy="3.5" r="3.5" transform="matrix(-1 0 0 1 927.72 78)" fill="white"/>
<circle cx="3.5" cy="3.5" r="3.5" transform="matrix(-1 0 0 1 77.9438 208)" fill="white"/>
<circle cx="3.5" cy="3.5" r="3.5" transform="matrix(-1 0 0 1 643.944 208)" fill="white"/>
<circle cx="3.5" cy="3.5" r="3.5" transform="matrix(-1 0 0 1 361.72 208)" fill="white"/>
<circle cx="3.5" cy="3.5" r="3.5" transform="matrix(-1 0 0 1 927.72 208)" fill="white"/>
<circle cx="3.5" cy="3.5" r="3.5" transform="matrix(-1 0 0 1 77.9438 338)" fill="white"/>
<circle cx="3.5" cy="3.5" r="3.5" transform="matrix(-1 0 0 1 643.944 338)" fill="white"/>
<circle cx="3.5" cy="3.5" r="3.5" transform="matrix(-1 0 0 1 361.72 338)" fill="white"/>
<circle cx="3.5" cy="3.5" r="3.5" transform="matrix(-1 0 0 1 927.72 338)" fill="white"/>
<circle cx="3.5" cy="3.5" r="3.5" transform="matrix(-1 0 0 1 148.888 78)" fill="white"/>
<circle cx="3.5" cy="3.5" r="3.5" transform="matrix(-1 0 0 1 714.888 78)" fill="white"/>
<circle cx="3.5" cy="3.5" r="3.5" transform="matrix(-1 0 0 1 432.665 78)" fill="white"/>
<circle cx="3.5" cy="3.5" r="3.5" transform="matrix(-1 0 0 1 998.665 78)" fill="white"/>
<circle cx="3.5" cy="3.5" r="3.5" transform="matrix(-1 0 0 1 148.888 208)" fill="white"/>
<circle cx="3.5" cy="3.5" r="3.5" transform="matrix(-1 0 0 1 714.888 208)" fill="white"/>
<circle cx="3.5" cy="3.5" r="3.5" transform="matrix(-1 0 0 1 432.665 208)" fill="white"/>
<circle cx="3.5" cy="3.5" r="3.5" transform="matrix(-1 0 0 1 998.665 208)" fill="white"/>
<circle cx="3.5" cy="3.5" r="3.5" transform="matrix(-1 0 0 1 148.888 338)" fill="white"/>
<circle cx="3.5" cy="3.5" r="3.5" transform="matrix(-1 0 0 1 714.888 338)" fill="white"/>
<circle cx="3.5" cy="3.5" r="3.5" transform="matrix(-1 0 0 1 432.665 338)" fill="white"/>
<circle cx="3.5" cy="3.5" r="3.5" transform="matrix(-1 0 0 1 998.665 338)" fill="white"/>
<circle cx="3.5" cy="3.5" r="3.5" transform="matrix(-1 0 0 1 219.832 78)" fill="white"/>
<circle cx="3.5" cy="3.5" r="3.5" transform="matrix(-1 0 0 1 785.832 78)" fill="white"/>
<circle cx="3.5" cy="3.5" r="3.5" transform="matrix(-1 0 0 1 503.609 78)" fill="white"/>
<circle cx="3.5" cy="3.5" r="3.5" transform="matrix(-1 0 0 1 1069.61 78)" fill="white"/>
<circle cx="3.5" cy="3.5" r="3.5" transform="matrix(-1 0 0 1 219.832 208)" fill="white"/>
<circle cx="3.5" cy="3.5" r="3.5" transform="matrix(-1 0 0 1 785.832 208)" fill="white"/>
<circle cx="3.5" cy="3.5" r="3.5" transform="matrix(-1 0 0 1 503.609 208)" fill="white"/>
<circle cx="3.5" cy="3.5" r="3.5" transform="matrix(-1 0 0 1 1069.61 208)" fill="white"/>
<circle cx="3.5" cy="3.5" r="3.5" transform="matrix(-1 0 0 1 219.832 338)" fill="white"/>
<circle cx="3.5" cy="3.5" r="3.5" transform="matrix(-1 0 0 1 785.832 338)" fill="white"/>
<circle cx="3.5" cy="3.5" r="3.5" transform="matrix(-1 0 0 1 503.609 338)" fill="white"/>
<circle cx="3.5" cy="3.5" r="3.5" transform="matrix(-1 0 0 1 1069.61 338)" fill="white"/>
<circle cx="3.5" cy="3.5" r="3.5" transform="matrix(-1 0 0 1 7 104)" fill="white"/>
<circle cx="3.5" cy="3.5" r="3.5" transform="matrix(-1 0 0 1 573 104)" fill="white"/>
<circle cx="3.5" cy="3.5" r="3.5" transform="matrix(-1 0 0 1 290.776 104)" fill="white"/>
<circle cx="3.5" cy="3.5" r="3.5" transform="matrix(-1 0 0 1 856.776 104)" fill="white"/>
<circle cx="3.5" cy="3.5" r="3.5" transform="matrix(-1 0 0 1 7 234)" fill="white"/>
<circle cx="3.5" cy="3.5" r="3.5" transform="matrix(-1 0 0 1 573 234)" fill="white"/>
<circle cx="3.5" cy="3.5" r="3.5" transform="matrix(-1 0 0 1 290.776 234)" fill="white"/>
<circle cx="3.5" cy="3.5" r="3.5" transform="matrix(-1 0 0 1 856.776 234)" fill="white"/>
<circle cx="3.5" cy="3.5" r="3.5" transform="matrix(-1 0 0 1 77.9438 104)" fill="white"/>
<circle cx="3.5" cy="3.5" r="3.5" transform="matrix(-1 0 0 1 643.944 104)" fill="white"/>
<circle cx="3.5" cy="3.5" r="3.5" transform="matrix(-1 0 0 1 361.72 104)" fill="white"/>
<circle cx="3.5" cy="3.5" r="3.5" transform="matrix(-1 0 0 1 927.72 104)" fill="white"/>
<circle cx="3.5" cy="3.5" r="3.5" transform="matrix(-1 0 0 1 77.9438 234)" fill="white"/>
<circle cx="3.5" cy="3.5" r="3.5" transform="matrix(-1 0 0 1 643.944 234)" fill="white"/>
<circle cx="3.5" cy="3.5" r="3.5" transform="matrix(-1 0 0 1 361.72 234)" fill="white"/>
<circle cx="3.5" cy="3.5" r="3.5" transform="matrix(-1 0 0 1 927.72 234)" fill="white"/>
<circle cx="3.5" cy="3.5" r="3.5" transform="matrix(-1 0 0 1 148.888 104)" fill="white"/>
<circle cx="3.5" cy="3.5" r="3.5" transform="matrix(-1 0 0 1 714.888 104)" fill="white"/>
<circle cx="3.5" cy="3.5" r="3.5" transform="matrix(-1 0 0 1 432.665 104)" fill="white"/>
<circle cx="3.5" cy="3.5" r="3.5" transform="matrix(-1 0 0 1 998.665 104)" fill="white"/>
<circle cx="3.5" cy="3.5" r="3.5" transform="matrix(-1 0 0 1 148.888 234)" fill="white"/>
<circle cx="3.5" cy="3.5" r="3.5" transform="matrix(-1 0 0 1 714.888 234)" fill="white"/>
<circle cx="3.5" cy="3.5" r="3.5" transform="matrix(-1 0 0 1 432.665 234)" fill="white"/>
<circle cx="3.5" cy="3.5" r="3.5" transform="matrix(-1 0 0 1 998.665 234)" fill="white"/>
<circle cx="3.5" cy="3.5" r="3.5" transform="matrix(-1 0 0 1 219.832 104)" fill="white"/>
<circle cx="3.5" cy="3.5" r="3.5" transform="matrix(-1 0 0 1 785.832 104)" fill="white"/>
<circle cx="3.5" cy="3.5" r="3.5" transform="matrix(-1 0 0 1 503.609 104)" fill="white"/>
<circle cx="3.5" cy="3.5" r="3.5" transform="matrix(-1 0 0 1 1069.61 104)" fill="white"/>
<circle cx="3.5" cy="3.5" r="3.5" transform="matrix(-1 0 0 1 219.832 234)" fill="white"/>
<circle cx="3.5" cy="3.5" r="3.5" transform="matrix(-1 0 0 1 785.832 234)" fill="white"/>
<circle cx="3.5" cy="3.5" r="3.5" transform="matrix(-1 0 0 1 503.609 234)" fill="white"/>
<circle cx="3.5" cy="3.5" r="3.5" transform="matrix(-1 0 0 1 1069.61 234)" fill="white"/>
<circle cx="3.5" cy="3.5" r="3.5" transform="matrix(-1 0 0 1 30.6479 52)" fill="white"/>
<circle cx="3.5" cy="3.5" r="3.5" transform="matrix(-1 0 0 1 596.648 52)" fill="white"/>
<circle cx="3.5" cy="3.5" r="3.5" transform="matrix(-1 0 0 1 314.424 52)" fill="white"/>
<circle cx="3.5" cy="3.5" r="3.5" transform="matrix(-1 0 0 1 880.424 52)" fill="white"/>
<circle cx="3.5" cy="3.5" r="3.5" transform="matrix(-1 0 0 1 30.6479 182)" fill="white"/>
<circle cx="3.5" cy="3.5" r="3.5" transform="matrix(-1 0 0 1 596.648 182)" fill="white"/>
<circle cx="3.5" cy="3.5" r="3.5" transform="matrix(-1 0 0 1 314.424 182)" fill="white"/>
<circle cx="3.5" cy="3.5" r="3.5" transform="matrix(-1 0 0 1 880.424 182)" fill="white"/>
<circle cx="3.5" cy="3.5" r="3.5" transform="matrix(-1 0 0 1 30.6479 312)" fill="white"/>
<circle cx="3.5" cy="3.5" r="3.5" transform="matrix(-1 0 0 1 596.648 312)" fill="white"/>
<circle cx="3.5" cy="3.5" r="3.5" transform="matrix(-1 0 0 1 314.424 312)" fill="white"/>
<circle cx="3.5" cy="3.5" r="3.5" transform="matrix(-1 0 0 1 880.424 312)" fill="white"/>
<circle cx="3.5" cy="3.5" r="3.5" transform="matrix(-1 0 0 1 101.592 52)" fill="white"/>
<circle cx="3.5" cy="3.5" r="3.5" transform="matrix(-1 0 0 1 667.592 52)" fill="white"/>
<circle cx="3.5" cy="3.5" r="3.5" transform="matrix(-1 0 0 1 385.368 52)" fill="white"/>
<circle cx="3.5" cy="3.5" r="3.5" transform="matrix(-1 0 0 1 951.368 52)" fill="white"/>
<circle cx="3.5" cy="3.5" r="3.5" transform="matrix(-1 0 0 1 101.592 182)" fill="white"/>
<circle cx="3.5" cy="3.5" r="3.5" transform="matrix(-1 0 0 1 667.592 182)" fill="white"/>
<circle cx="3.5" cy="3.5" r="3.5" transform="matrix(-1 0 0 1 385.368 182)" fill="white"/>
<circle cx="3.5" cy="3.5" r="3.5" transform="matrix(-1 0 0 1 951.368 182)" fill="white"/>
<circle cx="3.5" cy="3.5" r="3.5" transform="matrix(-1 0 0 1 101.592 312)" fill="white"/>
<circle cx="3.5" cy="3.5" r="3.5" transform="matrix(-1 0 0 1 667.592 312)" fill="white"/>
<circle cx="3.5" cy="3.5" r="3.5" transform="matrix(-1 0 0 1 385.368 312)" fill="white"/>
<circle cx="3.5" cy="3.5" r="3.5" transform="matrix(-1 0 0 1 951.368 312)" fill="white"/>
<circle cx="3.5" cy="3.5" r="3.5" transform="matrix(-1 0 0 1 172.536 52)" fill="white"/>
<circle cx="3.5" cy="3.5" r="3.5" transform="matrix(-1 0 0 1 738.536 52)" fill="white"/>
<circle cx="3.5" cy="3.5" r="3.5" transform="matrix(-1 0 0 1 456.312 52)" fill="white"/>
<circle cx="3.5" cy="3.5" r="3.5" transform="matrix(-1 0 0 1 1022.31 52)" fill="white"/>
<circle cx="3.5" cy="3.5" r="3.5" transform="matrix(-1 0 0 1 172.536 182)" fill="white"/>
<circle cx="3.5" cy="3.5" r="3.5" transform="matrix(-1 0 0 1 738.536 182)" fill="white"/>
<circle cx="3.5" cy="3.5" r="3.5" transform="matrix(-1 0 0 1 456.312 182)" fill="white"/>
<circle cx="3.5" cy="3.5" r="3.5" transform="matrix(-1 0 0 1 1022.31 182)" fill="white"/>
<circle cx="3.5" cy="3.5" r="3.5" transform="matrix(-1 0 0 1 172.536 312)" fill="white"/>
<circle cx="3.5" cy="3.5" r="3.5" transform="matrix(-1 0 0 1 738.536 312)" fill="white"/>
<circle cx="3.5" cy="3.5" r="3.5" transform="matrix(-1 0 0 1 456.312 312)" fill="white"/>
<circle cx="3.5" cy="3.5" r="3.5" transform="matrix(-1 0 0 1 1022.31 312)" fill="white"/>
<circle cx="3.5" cy="3.5" r="3.5" transform="matrix(-1 0 0 1 243.48 52)" fill="white"/>
<circle cx="3.5" cy="3.5" r="3.5" transform="matrix(-1 0 0 1 809.48 52)" fill="white"/>
<circle cx="3.5" cy="3.5" r="3.5" transform="matrix(-1 0 0 1 527.257 52)" fill="white"/>
<circle cx="3.5" cy="3.5" r="3.5" transform="matrix(-1 0 0 1 1093.26 52)" fill="white"/>
<circle cx="3.5" cy="3.5" r="3.5" transform="matrix(-1 0 0 1 243.48 182)" fill="white"/>
<circle cx="3.5" cy="3.5" r="3.5" transform="matrix(-1 0 0 1 809.48 182)" fill="white"/>
<circle cx="3.5" cy="3.5" r="3.5" transform="matrix(-1 0 0 1 527.257 182)" fill="white"/>
<circle cx="3.5" cy="3.5" r="3.5" transform="matrix(-1 0 0 1 1093.26 182)" fill="white"/>
<circle cx="3.5" cy="3.5" r="3.5" transform="matrix(-1 0 0 1 243.48 312)" fill="white"/>
<circle cx="3.5" cy="3.5" r="3.5" transform="matrix(-1 0 0 1 809.48 312)" fill="white"/>
<circle cx="3.5" cy="3.5" r="3.5" transform="matrix(-1 0 0 1 527.257 312)" fill="white"/>
<circle cx="3.5" cy="3.5" r="3.5" transform="matrix(-1 0 0 1 1093.26 312)" fill="white"/>
<circle cx="3.5" cy="3.5" r="3.5" transform="matrix(-1 0 0 1 30.6479 78)" fill="white"/>
<circle cx="3.5" cy="3.5" r="3.5" transform="matrix(-1 0 0 1 596.648 78)" fill="white"/>
<circle cx="3.5" cy="3.5" r="3.5" transform="matrix(-1 0 0 1 314.424 78)" fill="white"/>
<circle cx="3.5" cy="3.5" r="3.5" transform="matrix(-1 0 0 1 880.424 78)" fill="white"/>
<circle cx="3.5" cy="3.5" r="3.5" transform="matrix(-1 0 0 1 30.6479 208)" fill="white"/>
<circle cx="3.5" cy="3.5" r="3.5" transform="matrix(-1 0 0 1 596.648 208)" fill="white"/>
<circle cx="3.5" cy="3.5" r="3.5" transform="matrix(-1 0 0 1 314.424 208)" fill="white"/>
<circle cx="3.5" cy="3.5" r="3.5" transform="matrix(-1 0 0 1 880.424 208)" fill="white"/>
<circle cx="3.5" cy="3.5" r="3.5" transform="matrix(-1 0 0 1 30.6479 338)" fill="white"/>
<circle cx="3.5" cy="3.5" r="3.5" transform="matrix(-1 0 0 1 596.648 338)" fill="white"/>
<circle cx="3.5" cy="3.5" r="3.5" transform="matrix(-1 0 0 1 314.424 338)" fill="white"/>
<circle cx="3.5" cy="3.5" r="3.5" transform="matrix(-1 0 0 1 880.424 338)" fill="white"/>
<circle cx="3.5" cy="3.5" r="3.5" transform="matrix(-1 0 0 1 101.592 78)" fill="white"/>
<circle cx="3.5" cy="3.5" r="3.5" transform="matrix(-1 0 0 1 667.592 78)" fill="white"/>
<circle cx="3.5" cy="3.5" r="3.5" transform="matrix(-1 0 0 1 385.368 78)" fill="white"/>
<circle cx="3.5" cy="3.5" r="3.5" transform="matrix(-1 0 0 1 951.368 78)" fill="white"/>
<circle cx="3.5" cy="3.5" r="3.5" transform="matrix(-1 0 0 1 101.592 208)" fill="white"/>
<circle cx="3.5" cy="3.5" r="3.5" transform="matrix(-1 0 0 1 667.592 208)" fill="white"/>
<circle cx="3.5" cy="3.5" r="3.5" transform="matrix(-1 0 0 1 385.368 208)" fill="white"/>
<circle cx="3.5" cy="3.5" r="3.5" transform="matrix(-1 0 0 1 951.368 208)" fill="white"/>
<circle cx="3.5" cy="3.5" r="3.5" transform="matrix(-1 0 0 1 101.592 338)" fill="white"/>
<circle cx="3.5" cy="3.5" r="3.5" transform="matrix(-1 0 0 1 667.592 338)" fill="white"/>
<circle cx="3.5" cy="3.5" r="3.5" transform="matrix(-1 0 0 1 385.368 338)" fill="white"/>
<circle cx="3.5" cy="3.5" r="3.5" transform="matrix(-1 0 0 1 951.368 338)" fill="white"/>
<circle cx="3.5" cy="3.5" r="3.5" transform="matrix(-1 0 0 1 172.536 78)" fill="white"/>
<circle cx="3.5" cy="3.5" r="3.5" transform="matrix(-1 0 0 1 738.536 78)" fill="white"/>
<circle cx="3.5" cy="3.5" r="3.5" transform="matrix(-1 0 0 1 456.312 78)" fill="white"/>
<circle cx="3.5" cy="3.5" r="3.5" transform="matrix(-1 0 0 1 1022.31 78)" fill="white"/>
<circle cx="3.5" cy="3.5" r="3.5" transform="matrix(-1 0 0 1 172.536 208)" fill="white"/>
<circle cx="3.5" cy="3.5" r="3.5" transform="matrix(-1 0 0 1 738.536 208)" fill="white"/>
<circle cx="3.5" cy="3.5" r="3.5" transform="matrix(-1 0 0 1 456.312 208)" fill="white"/>
<circle cx="3.5" cy="3.5" r="3.5" transform="matrix(-1 0 0 1 1022.31 208)" fill="white"/>
<circle cx="3.5" cy="3.5" r="3.5" transform="matrix(-1 0 0 1 172.536 338)" fill="white"/>
<circle cx="3.5" cy="3.5" r="3.5" transform="matrix(-1 0 0 1 738.536 338)" fill="white"/>
<circle cx="3.5" cy="3.5" r="3.5" transform="matrix(-1 0 0 1 456.312 338)" fill="white"/>
<circle cx="3.5" cy="3.5" r="3.5" transform="matrix(-1 0 0 1 1022.31 338)" fill="white"/>
<circle cx="3.5" cy="3.5" r="3.5" transform="matrix(-1 0 0 1 243.48 78)" fill="white"/>
<circle cx="3.5" cy="3.5" r="3.5" transform="matrix(-1 0 0 1 809.48 78)" fill="white"/>
<circle cx="3.5" cy="3.5" r="3.5" transform="matrix(-1 0 0 1 527.257 78)" fill="white"/>
<circle cx="3.5" cy="3.5" r="3.5" transform="matrix(-1 0 0 1 1093.26 78)" fill="white"/>
<circle cx="3.5" cy="3.5" r="3.5" transform="matrix(-1 0 0 1 243.48 208)" fill="white"/>
<circle cx="3.5" cy="3.5" r="3.5" transform="matrix(-1 0 0 1 809.48 208)" fill="white"/>
<circle cx="3.5" cy="3.5" r="3.5" transform="matrix(-1 0 0 1 527.257 208)" fill="white"/>
<circle cx="3.5" cy="3.5" r="3.5" transform="matrix(-1 0 0 1 1093.26 208)" fill="white"/>
<circle cx="3.5" cy="3.5" r="3.5" transform="matrix(-1 0 0 1 243.48 338)" fill="white"/>
<circle cx="3.5" cy="3.5" r="3.5" transform="matrix(-1 0 0 1 809.48 338)" fill="white"/>
<circle cx="3.5" cy="3.5" r="3.5" transform="matrix(-1 0 0 1 527.257 338)" fill="white"/>
<circle cx="3.5" cy="3.5" r="3.5" transform="matrix(-1 0 0 1 1093.26 338)" fill="white"/>
<circle cx="3.5" cy="3.5" r="3.5" transform="matrix(-1 0 0 1 54.2961 0)" fill="white"/>
<circle cx="3.5" cy="3.5" r="3.5" transform="matrix(-1 0 0 1 620.296 0)" fill="white"/>
<circle cx="3.5" cy="3.5" r="3.5" transform="matrix(-1 0 0 1 338.072 0)" fill="white"/>
<circle cx="3.5" cy="3.5" r="3.5" transform="matrix(-1 0 0 1 904.072 0)" fill="white"/>
<circle cx="3.5" cy="3.5" r="3.5" transform="matrix(-1 0 0 1 54.2961 130)" fill="white"/>
<circle cx="3.5" cy="3.5" r="3.5" transform="matrix(-1 0 0 1 620.296 130)" fill="white"/>
<circle cx="3.5" cy="3.5" r="3.5" transform="matrix(-1 0 0 1 338.072 130)" fill="white"/>
<circle cx="3.5" cy="3.5" r="3.5" transform="matrix(-1 0 0 1 904.072 130)" fill="white"/>
<circle cx="3.5" cy="3.5" r="3.5" transform="matrix(-1 0 0 1 54.2961 260)" fill="white"/>
<circle cx="3.5" cy="3.5" r="3.5" transform="matrix(-1 0 0 1 620.296 260)" fill="white"/>
<circle cx="3.5" cy="3.5" r="3.5" transform="matrix(-1 0 0 1 338.072 260)" fill="white"/>
<circle cx="3.5" cy="3.5" r="3.5" transform="matrix(-1 0 0 1 904.072 260)" fill="white"/>
<circle cx="3.5" cy="3.5" r="3.5" transform="matrix(-1 0 0 1 125.24 0)" fill="white"/>
<circle cx="3.5" cy="3.5" r="3.5" transform="matrix(-1 0 0 1 691.24 0)" fill="white"/>
<circle cx="3.5" cy="3.5" r="3.5" transform="matrix(-1 0 0 1 409.016 0)" fill="white"/>
<circle cx="3.5" cy="3.5" r="3.5" transform="matrix(-1 0 0 1 975.016 0)" fill="white"/>
<circle cx="3.5" cy="3.5" r="3.5" transform="matrix(-1 0 0 1 125.24 130)" fill="white"/>
<circle cx="3.5" cy="3.5" r="3.5" transform="matrix(-1 0 0 1 691.24 130)" fill="white"/>
<circle cx="3.5" cy="3.5" r="3.5" transform="matrix(-1 0 0 1 409.016 130)" fill="white"/>
<circle cx="3.5" cy="3.5" r="3.5" transform="matrix(-1 0 0 1 975.016 130)" fill="white"/>
<circle cx="3.5" cy="3.5" r="3.5" transform="matrix(-1 0 0 1 125.24 260)" fill="white"/>
<circle cx="3.5" cy="3.5" r="3.5" transform="matrix(-1 0 0 1 691.24 260)" fill="white"/>
<circle cx="3.5" cy="3.5" r="3.5" transform="matrix(-1 0 0 1 409.016 260)" fill="white"/>
<circle cx="3.5" cy="3.5" r="3.5" transform="matrix(-1 0 0 1 975.016 260)" fill="white"/>
<circle cx="3.5" cy="3.5" r="3.5" transform="matrix(-1 0 0 1 196.184 0)" fill="white"/>
<circle cx="3.5" cy="3.5" r="3.5" transform="matrix(-1 0 0 1 762.184 0)" fill="white"/>
<circle cx="3.5" cy="3.5" r="3.5" transform="matrix(-1 0 0 1 479.96 0)" fill="white"/>
<circle cx="3.5" cy="3.5" r="3.5" transform="matrix(-1 0 0 1 1045.96 0)" fill="white"/>
<circle cx="3.5" cy="3.5" r="3.5" transform="matrix(-1 0 0 1 196.184 130)" fill="white"/>
<circle cx="3.5" cy="3.5" r="3.5" transform="matrix(-1 0 0 1 762.184 130)" fill="white"/>
<circle cx="3.5" cy="3.5" r="3.5" transform="matrix(-1 0 0 1 479.96 130)" fill="white"/>
<circle cx="3.5" cy="3.5" r="3.5" transform="matrix(-1 0 0 1 1045.96 130)" fill="white"/>
<circle cx="3.5" cy="3.5" r="3.5" transform="matrix(-1 0 0 1 196.184 260)" fill="white"/>
<circle cx="3.5" cy="3.5" r="3.5" transform="matrix(-1 0 0 1 762.184 260)" fill="white"/>
<circle cx="3.5" cy="3.5" r="3.5" transform="matrix(-1 0 0 1 479.96 260)" fill="white"/>
<circle cx="3.5" cy="3.5" r="3.5" transform="matrix(-1 0 0 1 1045.96 260)" fill="white"/>
<circle cx="3.5" cy="3.5" r="3.5" transform="matrix(-1 0 0 1 267.128 0)" fill="white"/>
<circle cx="3.5" cy="3.5" r="3.5" transform="matrix(-1 0 0 1 833.128 0)" fill="white"/>
<circle cx="3.5" cy="3.5" r="3.5" transform="matrix(-1 0 0 1 550.905 0)" fill="white"/>
<circle cx="3.5" cy="3.5" r="3.5" transform="matrix(-1 0 0 1 1116.9 0)" fill="white"/>
<circle cx="3.5" cy="3.5" r="3.5" transform="matrix(-1 0 0 1 267.128 130)" fill="white"/>
<circle cx="3.5" cy="3.5" r="3.5" transform="matrix(-1 0 0 1 833.128 130)" fill="white"/>
<circle cx="3.5" cy="3.5" r="3.5" transform="matrix(-1 0 0 1 550.905 130)" fill="white"/>
<circle cx="3.5" cy="3.5" r="3.5" transform="matrix(-1 0 0 1 1116.9 130)" fill="white"/>
<circle cx="3.5" cy="3.5" r="3.5" transform="matrix(-1 0 0 1 267.128 260)" fill="white"/>
<circle cx="3.5" cy="3.5" r="3.5" transform="matrix(-1 0 0 1 833.128 260)" fill="white"/>
<circle cx="3.5" cy="3.5" r="3.5" transform="matrix(-1 0 0 1 550.905 260)" fill="white"/>
<circle cx="3.5" cy="3.5" r="3.5" transform="matrix(-1 0 0 1 1116.9 260)" fill="white"/>
<circle cx="3.5" cy="3.5" r="3.5" transform="matrix(-1 0 0 1 54.2961 26)" fill="white"/>
<circle cx="3.5" cy="3.5" r="3.5" transform="matrix(-1 0 0 1 620.296 26)" fill="white"/>
<circle cx="3.5" cy="3.5" r="3.5" transform="matrix(-1 0 0 1 338.072 26)" fill="white"/>
<circle cx="3.5" cy="3.5" r="3.5" transform="matrix(-1 0 0 1 904.072 26)" fill="white"/>
<circle cx="3.5" cy="3.5" r="3.5" transform="matrix(-1 0 0 1 54.2961 156)" fill="white"/>
<circle cx="3.5" cy="3.5" r="3.5" transform="matrix(-1 0 0 1 620.296 156)" fill="white"/>
<circle cx="3.5" cy="3.5" r="3.5" transform="matrix(-1 0 0 1 338.072 156)" fill="white"/>
<circle cx="3.5" cy="3.5" r="3.5" transform="matrix(-1 0 0 1 904.072 156)" fill="white"/>
<circle cx="3.5" cy="3.5" r="3.5" transform="matrix(-1 0 0 1 54.2961 286)" fill="white"/>
<circle cx="3.5" cy="3.5" r="3.5" transform="matrix(-1 0 0 1 620.296 286)" fill="white"/>
<circle cx="3.5" cy="3.5" r="3.5" transform="matrix(-1 0 0 1 338.072 286)" fill="white"/>
<circle cx="3.5" cy="3.5" r="3.5" transform="matrix(-1 0 0 1 904.072 286)" fill="white"/>
<circle cx="3.5" cy="3.5" r="3.5" transform="matrix(-1 0 0 1 125.24 26)" fill="white"/>
<circle cx="3.5" cy="3.5" r="3.5" transform="matrix(-1 0 0 1 691.24 26)" fill="white"/>
<circle cx="3.5" cy="3.5" r="3.5" transform="matrix(-1 0 0 1 409.016 26)" fill="white"/>
<circle cx="3.5" cy="3.5" r="3.5" transform="matrix(-1 0 0 1 975.016 26)" fill="white"/>
<circle cx="3.5" cy="3.5" r="3.5" transform="matrix(-1 0 0 1 125.24 156)" fill="white"/>
<circle cx="3.5" cy="3.5" r="3.5" transform="matrix(-1 0 0 1 691.24 156)" fill="white"/>
<circle cx="3.5" cy="3.5" r="3.5" transform="matrix(-1 0 0 1 409.016 156)" fill="white"/>
<circle cx="3.5" cy="3.5" r="3.5" transform="matrix(-1 0 0 1 975.016 156)" fill="white"/>
<circle cx="3.5" cy="3.5" r="3.5" transform="matrix(-1 0 0 1 125.24 286)" fill="white"/>
<circle cx="3.5" cy="3.5" r="3.5" transform="matrix(-1 0 0 1 691.24 286)" fill="white"/>
<circle cx="3.5" cy="3.5" r="3.5" transform="matrix(-1 0 0 1 409.016 286)" fill="white"/>
<circle cx="3.5" cy="3.5" r="3.5" transform="matrix(-1 0 0 1 975.016 286)" fill="white"/>
<circle cx="3.5" cy="3.5" r="3.5" transform="matrix(-1 0 0 1 196.184 26)" fill="white"/>
<circle cx="3.5" cy="3.5" r="3.5" transform="matrix(-1 0 0 1 762.184 26)" fill="white"/>
<circle cx="3.5" cy="3.5" r="3.5" transform="matrix(-1 0 0 1 479.96 26)" fill="white"/>
<circle cx="3.5" cy="3.5" r="3.5" transform="matrix(-1 0 0 1 1045.96 26)" fill="white"/>
<circle cx="3.5" cy="3.5" r="3.5" transform="matrix(-1 0 0 1 196.184 156)" fill="white"/>
<circle cx="3.5" cy="3.5" r="3.5" transform="matrix(-1 0 0 1 762.184 156)" fill="white"/>
<circle cx="3.5" cy="3.5" r="3.5" transform="matrix(-1 0 0 1 479.96 156)" fill="white"/>
<circle cx="3.5" cy="3.5" r="3.5" transform="matrix(-1 0 0 1 1045.96 156)" fill="white"/>
<circle cx="3.5" cy="3.5" r="3.5" transform="matrix(-1 0 0 1 196.184 286)" fill="white"/>
<circle cx="3.5" cy="3.5" r="3.5" transform="matrix(-1 0 0 1 762.184 286)" fill="white"/>
<circle cx="3.5" cy="3.5" r="3.5" transform="matrix(-1 0 0 1 479.96 286)" fill="white"/>
<circle cx="3.5" cy="3.5" r="3.5" transform="matrix(-1 0 0 1 1045.96 286)" fill="white"/>
<circle cx="3.5" cy="3.5" r="3.5" transform="matrix(-1 0 0 1 267.128 26)" fill="white"/>
<circle cx="3.5" cy="3.5" r="3.5" transform="matrix(-1 0 0 1 833.128 26)" fill="white"/>
<circle cx="3.5" cy="3.5" r="3.5" transform="matrix(-1 0 0 1 550.905 26)" fill="white"/>
<circle cx="3.5" cy="3.5" r="3.5" transform="matrix(-1 0 0 1 1116.9 26)" fill="white"/>
<circle cx="3.5" cy="3.5" r="3.5" transform="matrix(-1 0 0 1 267.128 156)" fill="white"/>
<circle cx="3.5" cy="3.5" r="3.5" transform="matrix(-1 0 0 1 833.128 156)" fill="white"/>
<circle cx="3.5" cy="3.5" r="3.5" transform="matrix(-1 0 0 1 550.905 156)" fill="white"/>
<circle cx="3.5" cy="3.5" r="3.5" transform="matrix(-1 0 0 1 1116.9 156)" fill="white"/>
<circle cx="3.5" cy="3.5" r="3.5" transform="matrix(-1 0 0 1 267.128 286)" fill="white"/>
<circle cx="3.5" cy="3.5" r="3.5" transform="matrix(-1 0 0 1 833.128 286)" fill="white"/>
<circle cx="3.5" cy="3.5" r="3.5" transform="matrix(-1 0 0 1 550.905 286)" fill="white"/>
<circle cx="3.5" cy="3.5" r="3.5" transform="matrix(-1 0 0 1 1116.9 286)" fill="white"/>
<circle cx="3.5" cy="3.5" r="3.5" transform="matrix(-1 0 0 1 30.6479 26)" fill="white"/>
<circle cx="3.5" cy="3.5" r="3.5" transform="matrix(-1 0 0 1 596.648 26)" fill="white"/>
<circle cx="3.5" cy="3.5" r="3.5" transform="matrix(-1 0 0 1 314.424 26)" fill="white"/>
<circle cx="3.5" cy="3.5" r="3.5" transform="matrix(-1 0 0 1 880.424 26)" fill="white"/>
<circle cx="3.5" cy="3.5" r="3.5" transform="matrix(-1 0 0 1 30.6479 156)" fill="white"/>
<circle cx="3.5" cy="3.5" r="3.5" transform="matrix(-1 0 0 1 596.648 156)" fill="white"/>
<circle cx="3.5" cy="3.5" r="3.5" transform="matrix(-1 0 0 1 314.424 156)" fill="white"/>
<circle cx="3.5" cy="3.5" r="3.5" transform="matrix(-1 0 0 1 880.424 156)" fill="white"/>
<circle cx="3.5" cy="3.5" r="3.5" transform="matrix(-1 0 0 1 30.6479 286)" fill="white"/>
<circle cx="3.5" cy="3.5" r="3.5" transform="matrix(-1 0 0 1 596.648 286)" fill="white"/>
<circle cx="3.5" cy="3.5" r="3.5" transform="matrix(-1 0 0 1 314.424 286)" fill="white"/>
<circle cx="3.5" cy="3.5" r="3.5" transform="matrix(-1 0 0 1 880.424 286)" fill="white"/>
<circle cx="3.5" cy="3.5" r="3.5" transform="matrix(-1 0 0 1 101.592 26)" fill="white"/>
<circle cx="3.5" cy="3.5" r="3.5" transform="matrix(-1 0 0 1 667.592 26)" fill="white"/>
<circle cx="3.5" cy="3.5" r="3.5" transform="matrix(-1 0 0 1 385.368 26)" fill="white"/>
<circle cx="3.5" cy="3.5" r="3.5" transform="matrix(-1 0 0 1 951.368 26)" fill="white"/>
<circle cx="3.5" cy="3.5" r="3.5" transform="matrix(-1 0 0 1 101.592 156)" fill="white"/>
<circle cx="3.5" cy="3.5" r="3.5" transform="matrix(-1 0 0 1 667.592 156)" fill="white"/>
<circle cx="3.5" cy="3.5" r="3.5" transform="matrix(-1 0 0 1 385.368 156)" fill="white"/>
<circle cx="3.5" cy="3.5" r="3.5" transform="matrix(-1 0 0 1 951.368 156)" fill="white"/>
<circle cx="3.5" cy="3.5" r="3.5" transform="matrix(-1 0 0 1 101.592 286)" fill="white"/>
<circle cx="3.5" cy="3.5" r="3.5" transform="matrix(-1 0 0 1 667.592 286)" fill="white"/>
<circle cx="3.5" cy="3.5" r="3.5" transform="matrix(-1 0 0 1 385.368 286)" fill="white"/>
<circle cx="3.5" cy="3.5" r="3.5" transform="matrix(-1 0 0 1 951.368 286)" fill="white"/>
<circle cx="3.5" cy="3.5" r="3.5" transform="matrix(-1 0 0 1 172.536 26)" fill="white"/>
<circle cx="3.5" cy="3.5" r="3.5" transform="matrix(-1 0 0 1 738.536 26)" fill="white"/>
<circle cx="3.5" cy="3.5" r="3.5" transform="matrix(-1 0 0 1 456.312 26)" fill="white"/>
<circle cx="3.5" cy="3.5" r="3.5" transform="matrix(-1 0 0 1 1022.31 26)" fill="white"/>
<circle cx="3.5" cy="3.5" r="3.5" transform="matrix(-1 0 0 1 172.536 156)" fill="white"/>
<circle cx="3.5" cy="3.5" r="3.5" transform="matrix(-1 0 0 1 738.536 156)" fill="white"/>
<circle cx="3.5" cy="3.5" r="3.5" transform="matrix(-1 0 0 1 456.312 156)" fill="white"/>
<circle cx="3.5" cy="3.5" r="3.5" transform="matrix(-1 0 0 1 1022.31 156)" fill="white"/>
<circle cx="3.5" cy="3.5" r="3.5" transform="matrix(-1 0 0 1 172.536 286)" fill="white"/>
<circle cx="3.5" cy="3.5" r="3.5" transform="matrix(-1 0 0 1 738.536 286)" fill="white"/>
<circle cx="3.5" cy="3.5" r="3.5" transform="matrix(-1 0 0 1 456.312 286)" fill="white"/>
<circle cx="3.5" cy="3.5" r="3.5" transform="matrix(-1 0 0 1 1022.31 286)" fill="white"/>
<circle cx="3.5" cy="3.5" r="3.5" transform="matrix(-1 0 0 1 243.48 26)" fill="white"/>
<circle cx="3.5" cy="3.5" r="3.5" transform="matrix(-1 0 0 1 809.48 26)" fill="white"/>
<circle cx="3.5" cy="3.5" r="3.5" transform="matrix(-1 0 0 1 527.257 26)" fill="white"/>
<circle cx="3.5" cy="3.5" r="3.5" transform="matrix(-1 0 0 1 1093.26 26)" fill="white"/>
<circle cx="3.5" cy="3.5" r="3.5" transform="matrix(-1 0 0 1 243.48 156)" fill="white"/>
<circle cx="3.5" cy="3.5" r="3.5" transform="matrix(-1 0 0 1 809.48 156)" fill="white"/>
<circle cx="3.5" cy="3.5" r="3.5" transform="matrix(-1 0 0 1 527.257 156)" fill="white"/>
<circle cx="3.5" cy="3.5" r="3.5" transform="matrix(-1 0 0 1 1093.26 156)" fill="white"/>
<circle cx="3.5" cy="3.5" r="3.5" transform="matrix(-1 0 0 1 243.48 286)" fill="white"/>
<circle cx="3.5" cy="3.5" r="3.5" transform="matrix(-1 0 0 1 809.48 286)" fill="white"/>
<circle cx="3.5" cy="3.5" r="3.5" transform="matrix(-1 0 0 1 527.257 286)" fill="white"/>
<circle cx="3.5" cy="3.5" r="3.5" transform="matrix(-1 0 0 1 1093.26 286)" fill="white"/>
<circle cx="3.5" cy="3.5" r="3.5" transform="matrix(-1 0 0 1 7 26)" fill="white"/>
<circle cx="3.5" cy="3.5" r="3.5" transform="matrix(-1 0 0 1 573 26)" fill="white"/>
<circle cx="3.5" cy="3.5" r="3.5" transform="matrix(-1 0 0 1 290.776 26)" fill="white"/>
<circle cx="3.5" cy="3.5" r="3.5" transform="matrix(-1 0 0 1 856.776 26)" fill="white"/>
<circle cx="3.5" cy="3.5" r="3.5" transform="matrix(-1 0 0 1 7 156)" fill="white"/>
<circle cx="3.5" cy="3.5" r="3.5" transform="matrix(-1 0 0 1 573 156)" fill="white"/>
<circle cx="3.5" cy="3.5" r="3.5" transform="matrix(-1 0 0 1 290.776 156)" fill="white"/>
<circle cx="3.5" cy="3.5" r="3.5" transform="matrix(-1 0 0 1 856.776 156)" fill="white"/>
<circle cx="3.5" cy="3.5" r="3.5" transform="matrix(-1 0 0 1 7 286)" fill="white"/>
<circle cx="3.5" cy="3.5" r="3.5" transform="matrix(-1 0 0 1 573 286)" fill="white"/>
<circle cx="3.5" cy="3.5" r="3.5" transform="matrix(-1 0 0 1 290.776 286)" fill="white"/>
<circle cx="3.5" cy="3.5" r="3.5" transform="matrix(-1 0 0 1 856.776 286)" fill="white"/>
<circle cx="3.5" cy="3.5" r="3.5" transform="matrix(-1 0 0 1 77.9438 26)" fill="white"/>
<circle cx="3.5" cy="3.5" r="3.5" transform="matrix(-1 0 0 1 643.944 26)" fill="white"/>
<circle cx="3.5" cy="3.5" r="3.5" transform="matrix(-1 0 0 1 361.72 26)" fill="white"/>
<circle cx="3.5" cy="3.5" r="3.5" transform="matrix(-1 0 0 1 927.72 26)" fill="white"/>
<circle cx="3.5" cy="3.5" r="3.5" transform="matrix(-1 0 0 1 77.9438 156)" fill="white"/>
<circle cx="3.5" cy="3.5" r="3.5" transform="matrix(-1 0 0 1 643.944 156)" fill="white"/>
<circle cx="3.5" cy="3.5" r="3.5" transform="matrix(-1 0 0 1 361.72 156)" fill="white"/>
<circle cx="3.5" cy="3.5" r="3.5" transform="matrix(-1 0 0 1 927.72 156)" fill="white"/>
<circle cx="3.5" cy="3.5" r="3.5" transform="matrix(-1 0 0 1 77.9438 286)" fill="white"/>
<circle cx="3.5" cy="3.5" r="3.5" transform="matrix(-1 0 0 1 643.944 286)" fill="white"/>
<circle cx="3.5" cy="3.5" r="3.5" transform="matrix(-1 0 0 1 361.72 286)" fill="white"/>
<circle cx="3.5" cy="3.5" r="3.5" transform="matrix(-1 0 0 1 927.72 286)" fill="white"/>
<circle cx="3.5" cy="3.5" r="3.5" transform="matrix(-1 0 0 1 148.888 26)" fill="white"/>
<circle cx="3.5" cy="3.5" r="3.5" transform="matrix(-1 0 0 1 714.888 26)" fill="white"/>
<circle cx="3.5" cy="3.5" r="3.5" transform="matrix(-1 0 0 1 432.665 26)" fill="white"/>
<circle cx="3.5" cy="3.5" r="3.5" transform="matrix(-1 0 0 1 998.665 26)" fill="white"/>
<circle cx="3.5" cy="3.5" r="3.5" transform="matrix(-1 0 0 1 148.888 156)" fill="white"/>
<circle cx="3.5" cy="3.5" r="3.5" transform="matrix(-1 0 0 1 714.888 156)" fill="white"/>
<circle cx="3.5" cy="3.5" r="3.5" transform="matrix(-1 0 0 1 432.665 156)" fill="white"/>
<circle cx="3.5" cy="3.5" r="3.5" transform="matrix(-1 0 0 1 998.665 156)" fill="white"/>
<circle cx="3.5" cy="3.5" r="3.5" transform="matrix(-1 0 0 1 148.888 286)" fill="white"/>
<circle cx="3.5" cy="3.5" r="3.5" transform="matrix(-1 0 0 1 714.888 286)" fill="white"/>
<circle cx="3.5" cy="3.5" r="3.5" transform="matrix(-1 0 0 1 432.665 286)" fill="white"/>
<circle cx="3.5" cy="3.5" r="3.5" transform="matrix(-1 0 0 1 998.665 286)" fill="white"/>
<circle cx="3.5" cy="3.5" r="3.5" transform="matrix(-1 0 0 1 219.832 26)" fill="white"/>
<circle cx="3.5" cy="3.5" r="3.5" transform="matrix(-1 0 0 1 785.832 26)" fill="white"/>
<circle cx="3.5" cy="3.5" r="3.5" transform="matrix(-1 0 0 1 503.609 26)" fill="white"/>
<circle cx="3.5" cy="3.5" r="3.5" transform="matrix(-1 0 0 1 1069.61 26)" fill="white"/>
<circle cx="3.5" cy="3.5" r="3.5" transform="matrix(-1 0 0 1 219.832 156)" fill="white"/>
<circle cx="3.5" cy="3.5" r="3.5" transform="matrix(-1 0 0 1 785.832 156)" fill="white"/>
<circle cx="3.5" cy="3.5" r="3.5" transform="matrix(-1 0 0 1 503.609 156)" fill="white"/>
<circle cx="3.5" cy="3.5" r="3.5" transform="matrix(-1 0 0 1 1069.61 156)" fill="white"/>
<circle cx="3.5" cy="3.5" r="3.5" transform="matrix(-1 0 0 1 219.832 286)" fill="white"/>
<circle cx="3.5" cy="3.5" r="3.5" transform="matrix(-1 0 0 1 785.832 286)" fill="white"/>
<circle cx="3.5" cy="3.5" r="3.5" transform="matrix(-1 0 0 1 503.609 286)" fill="white"/>
<circle cx="3.5" cy="3.5" r="3.5" transform="matrix(-1 0 0 1 1069.61 286)" fill="white"/>
<circle cx="3.5" cy="3.5" r="3.5" transform="matrix(-1 0 0 1 30.6479 0)" fill="white"/>
<circle cx="3.5" cy="3.5" r="3.5" transform="matrix(-1 0 0 1 596.648 0)" fill="white"/>
<circle cx="3.5" cy="3.5" r="3.5" transform="matrix(-1 0 0 1 314.424 0)" fill="white"/>
<circle cx="3.5" cy="3.5" r="3.5" transform="matrix(-1 0 0 1 880.424 0)" fill="white"/>
<circle cx="3.5" cy="3.5" r="3.5" transform="matrix(-1 0 0 1 30.6479 130)" fill="white"/>
<circle cx="3.5" cy="3.5" r="3.5" transform="matrix(-1 0 0 1 596.648 130)" fill="white"/>
<circle cx="3.5" cy="3.5" r="3.5" transform="matrix(-1 0 0 1 314.424 130)" fill="white"/>
<circle cx="3.5" cy="3.5" r="3.5" transform="matrix(-1 0 0 1 880.424 130)" fill="white"/>
<circle cx="3.5" cy="3.5" r="3.5" transform="matrix(-1 0 0 1 30.6479 260)" fill="white"/>
<circle cx="3.5" cy="3.5" r="3.5" transform="matrix(-1 0 0 1 596.648 260)" fill="white"/>
<circle cx="3.5" cy="3.5" r="3.5" transform="matrix(-1 0 0 1 314.424 260)" fill="white"/>
<circle cx="3.5" cy="3.5" r="3.5" transform="matrix(-1 0 0 1 880.424 260)" fill="white"/>
<circle cx="3.5" cy="3.5" r="3.5" transform="matrix(-1 0 0 1 101.592 0)" fill="white"/>
<circle cx="3.5" cy="3.5" r="3.5" transform="matrix(-1 0 0 1 667.592 0)" fill="white"/>
<circle cx="3.5" cy="3.5" r="3.5" transform="matrix(-1 0 0 1 385.368 0)" fill="white"/>
<circle cx="3.5" cy="3.5" r="3.5" transform="matrix(-1 0 0 1 951.368 0)" fill="white"/>
<circle cx="3.5" cy="3.5" r="3.5" transform="matrix(-1 0 0 1 101.592 130)" fill="white"/>
<circle cx="3.5" cy="3.5" r="3.5" transform="matrix(-1 0 0 1 667.592 130)" fill="white"/>
<circle cx="3.5" cy="3.5" r="3.5" transform="matrix(-1 0 0 1 385.368 130)" fill="white"/>
<circle cx="3.5" cy="3.5" r="3.5" transform="matrix(-1 0 0 1 951.368 130)" fill="white"/>
<circle cx="3.5" cy="3.5" r="3.5" transform="matrix(-1 0 0 1 101.592 260)" fill="white"/>
<circle cx="3.5" cy="3.5" r="3.5" transform="matrix(-1 0 0 1 667.592 260)" fill="white"/>
<circle cx="3.5" cy="3.5" r="3.5" transform="matrix(-1 0 0 1 385.368 260)" fill="white"/>
<circle cx="3.5" cy="3.5" r="3.5" transform="matrix(-1 0 0 1 951.368 260)" fill="white"/>
<circle cx="3.5" cy="3.5" r="3.5" transform="matrix(-1 0 0 1 172.536 0)" fill="white"/>
<circle cx="3.5" cy="3.5" r="3.5" transform="matrix(-1 0 0 1 738.536 0)" fill="white"/>
<circle cx="3.5" cy="3.5" r="3.5" transform="matrix(-1 0 0 1 456.312 0)" fill="white"/>
<circle cx="3.5" cy="3.5" r="3.5" transform="matrix(-1 0 0 1 1022.31 0)" fill="white"/>
<circle cx="3.5" cy="3.5" r="3.5" transform="matrix(-1 0 0 1 172.536 130)" fill="white"/>
<circle cx="3.5" cy="3.5" r="3.5" transform="matrix(-1 0 0 1 738.536 130)" fill="white"/>
<circle cx="3.5" cy="3.5" r="3.5" transform="matrix(-1 0 0 1 456.312 130)" fill="white"/>
<circle cx="3.5" cy="3.5" r="3.5" transform="matrix(-1 0 0 1 1022.31 130)" fill="white"/>
<circle cx="3.5" cy="3.5" r="3.5" transform="matrix(-1 0 0 1 172.536 260)" fill="white"/>
<circle cx="3.5" cy="3.5" r="3.5" transform="matrix(-1 0 0 1 738.536 260)" fill="white"/>
<circle cx="3.5" cy="3.5" r="3.5" transform="matrix(-1 0 0 1 456.312 260)" fill="white"/>
<circle cx="3.5" cy="3.5" r="3.5" transform="matrix(-1 0 0 1 1022.31 260)" fill="white"/>
<circle cx="3.5" cy="3.5" r="3.5" transform="matrix(-1 0 0 1 243.48 0)" fill="white"/>
<circle cx="3.5" cy="3.5" r="3.5" transform="matrix(-1 0 0 1 809.48 0)" fill="white"/>
<circle cx="3.5" cy="3.5" r="3.5" transform="matrix(-1 0 0 1 527.257 0)" fill="white"/>
<circle cx="3.5" cy="3.5" r="3.5" transform="matrix(-1 0 0 1 1093.26 0)" fill="white"/>
<circle cx="3.5" cy="3.5" r="3.5" transform="matrix(-1 0 0 1 243.48 130)" fill="white"/>
<circle cx="3.5" cy="3.5" r="3.5" transform="matrix(-1 0 0 1 809.48 130)" fill="white"/>
<circle cx="3.5" cy="3.5" r="3.5" transform="matrix(-1 0 0 1 527.257 130)" fill="white"/>
<circle cx="3.5" cy="3.5" r="3.5" transform="matrix(-1 0 0 1 1093.26 130)" fill="white"/>
<circle cx="3.5" cy="3.5" r="3.5" transform="matrix(-1 0 0 1 243.48 260)" fill="white"/>
<circle cx="3.5" cy="3.5" r="3.5" transform="matrix(-1 0 0 1 809.48 260)" fill="white"/>
<circle cx="3.5" cy="3.5" r="3.5" transform="matrix(-1 0 0 1 527.257 260)" fill="white"/>
<circle cx="3.5" cy="3.5" r="3.5" transform="matrix(-1 0 0 1 1093.26 260)" fill="white"/>
<circle cx="3.5" cy="3.5" r="3.5" transform="matrix(-1 0 0 1 7 0)" fill="white"/>
<circle cx="3.5" cy="3.5" r="3.5" transform="matrix(-1 0 0 1 573 0)" fill="white"/>
<circle cx="3.5" cy="3.5" r="3.5" transform="matrix(-1 0 0 1 290.776 0)" fill="white"/>
<circle cx="3.5" cy="3.5" r="3.5" transform="matrix(-1 0 0 1 856.776 0)" fill="white"/>
<circle cx="3.5" cy="3.5" r="3.5" transform="matrix(-1 0 0 1 7 130)" fill="white"/>
<circle cx="3.5" cy="3.5" r="3.5" transform="matrix(-1 0 0 1 573 130)" fill="white"/>
<circle cx="3.5" cy="3.5" r="3.5" transform="matrix(-1 0 0 1 290.776 130)" fill="white"/>
<circle cx="3.5" cy="3.5" r="3.5" transform="matrix(-1 0 0 1 856.776 130)" fill="white"/>
<circle cx="3.5" cy="3.5" r="3.5" transform="matrix(-1 0 0 1 7 260)" fill="white"/>
<circle cx="3.5" cy="3.5" r="3.5" transform="matrix(-1 0 0 1 573 260)" fill="white"/>
<circle cx="3.5" cy="3.5" r="3.5" transform="matrix(-1 0 0 1 290.776 260)" fill="white"/>
<circle cx="3.5" cy="3.5" r="3.5" transform="matrix(-1 0 0 1 856.776 260)" fill="white"/>
<circle cx="3.5" cy="3.5" r="3.5" transform="matrix(-1 0 0 1 77.9438 0)" fill="white"/>
<circle cx="3.5" cy="3.5" r="3.5" transform="matrix(-1 0 0 1 643.944 0)" fill="white"/>
<circle cx="3.5" cy="3.5" r="3.5" transform="matrix(-1 0 0 1 361.72 0)" fill="white"/>
<circle cx="3.5" cy="3.5" r="3.5" transform="matrix(-1 0 0 1 927.72 0)" fill="white"/>
<circle cx="3.5" cy="3.5" r="3.5" transform="matrix(-1 0 0 1 77.9438 130)" fill="white"/>
<circle cx="3.5" cy="3.5" r="3.5" transform="matrix(-1 0 0 1 643.944 130)" fill="white"/>
<circle cx="3.5" cy="3.5" r="3.5" transform="matrix(-1 0 0 1 361.72 130)" fill="white"/>
<circle cx="3.5" cy="3.5" r="3.5" transform="matrix(-1 0 0 1 927.72 130)" fill="white"/>
<circle cx="3.5" cy="3.5" r="3.5" transform="matrix(-1 0 0 1 77.9438 260)" fill="white"/>
<circle cx="3.5" cy="3.5" r="3.5" transform="matrix(-1 0 0 1 643.944 260)" fill="white"/>
<circle cx="3.5" cy="3.5" r="3.5" transform="matrix(-1 0 0 1 361.72 260)" fill="white"/>
<circle cx="3.5" cy="3.5" r="3.5" transform="matrix(-1 0 0 1 927.72 260)" fill="white"/>
<circle cx="3.5" cy="3.5" r="3.5" transform="matrix(-1 0 0 1 148.888 0)" fill="white"/>
<circle cx="3.5" cy="3.5" r="3.5" transform="matrix(-1 0 0 1 714.888 0)" fill="white"/>
<circle cx="3.5" cy="3.5" r="3.5" transform="matrix(-1 0 0 1 432.665 0)" fill="white"/>
<circle cx="3.5" cy="3.5" r="3.5" transform="matrix(-1 0 0 1 998.665 0)" fill="white"/>
<circle cx="3.5" cy="3.5" r="3.5" transform="matrix(-1 0 0 1 148.888 130)" fill="white"/>
<circle cx="3.5" cy="3.5" r="3.5" transform="matrix(-1 0 0 1 714.888 130)" fill="white"/>
<circle cx="3.5" cy="3.5" r="3.5" transform="matrix(-1 0 0 1 432.665 130)" fill="white"/>
<circle cx="3.5" cy="3.5" r="3.5" transform="matrix(-1 0 0 1 998.665 130)" fill="white"/>
<circle cx="3.5" cy="3.5" r="3.5" transform="matrix(-1 0 0 1 148.888 260)" fill="white"/>
<circle cx="3.5" cy="3.5" r="3.5" transform="matrix(-1 0 0 1 714.888 260)" fill="white"/>
<circle cx="3.5" cy="3.5" r="3.5" transform="matrix(-1 0 0 1 432.665 260)" fill="white"/>
<circle cx="3.5" cy="3.5" r="3.5" transform="matrix(-1 0 0 1 998.665 260)" fill="white"/>
<circle cx="3.5" cy="3.5" r="3.5" transform="matrix(-1 0 0 1 219.832 0)" fill="white"/>
<circle cx="3.5" cy="3.5" r="3.5" transform="matrix(-1 0 0 1 785.832 0)" fill="white"/>
<circle cx="3.5" cy="3.5" r="3.5" transform="matrix(-1 0 0 1 503.609 0)" fill="white"/>
<circle cx="3.5" cy="3.5" r="3.5" transform="matrix(-1 0 0 1 1069.61 0)" fill="white"/>
<circle cx="3.5" cy="3.5" r="3.5" transform="matrix(-1 0 0 1 219.832 130)" fill="white"/>
<circle cx="3.5" cy="3.5" r="3.5" transform="matrix(-1 0 0 1 785.832 130)" fill="white"/>
<circle cx="3.5" cy="3.5" r="3.5" transform="matrix(-1 0 0 1 503.609 130)" fill="white"/>
<circle cx="3.5" cy="3.5" r="3.5" transform="matrix(-1 0 0 1 1069.61 130)" fill="white"/>
<circle cx="3.5" cy="3.5" r="3.5" transform="matrix(-1 0 0 1 219.832 260)" fill="white"/>
<circle cx="3.5" cy="3.5" r="3.5" transform="matrix(-1 0 0 1 785.832 260)" fill="white"/>
<circle cx="3.5" cy="3.5" r="3.5" transform="matrix(-1 0 0 1 503.609 260)" fill="white"/>
<circle cx="3.5" cy="3.5" r="3.5" transform="matrix(-1 0 0 1 1069.61 260)" fill="white"/>
<circle cx="3.5" cy="3.5" r="3.5" transform="matrix(-1 0 0 1 54.2961 52)" fill="white"/>
<circle cx="3.5" cy="3.5" r="3.5" transform="matrix(-1 0 0 1 620.296 52)" fill="white"/>
<circle cx="3.5" cy="3.5" r="3.5" transform="matrix(-1 0 0 1 338.072 52)" fill="white"/>
<circle cx="3.5" cy="3.5" r="3.5" transform="matrix(-1 0 0 1 904.072 52)" fill="white"/>
<circle cx="3.5" cy="3.5" r="3.5" transform="matrix(-1 0 0 1 54.2961 182)" fill="white"/>
<circle cx="3.5" cy="3.5" r="3.5" transform="matrix(-1 0 0 1 620.296 182)" fill="white"/>
<circle cx="3.5" cy="3.5" r="3.5" transform="matrix(-1 0 0 1 338.072 182)" fill="white"/>
<circle cx="3.5" cy="3.5" r="3.5" transform="matrix(-1 0 0 1 904.072 182)" fill="white"/>
<circle cx="3.5" cy="3.5" r="3.5" transform="matrix(-1 0 0 1 54.2961 312)" fill="white"/>
<circle cx="3.5" cy="3.5" r="3.5" transform="matrix(-1 0 0 1 620.296 312)" fill="white"/>
<circle cx="3.5" cy="3.5" r="3.5" transform="matrix(-1 0 0 1 338.072 312)" fill="white"/>
<circle cx="3.5" cy="3.5" r="3.5" transform="matrix(-1 0 0 1 904.072 312)" fill="white"/>
<circle cx="3.5" cy="3.5" r="3.5" transform="matrix(-1 0 0 1 125.24 52)" fill="white"/>
<circle cx="3.5" cy="3.5" r="3.5" transform="matrix(-1 0 0 1 691.24 52)" fill="white"/>
<circle cx="3.5" cy="3.5" r="3.5" transform="matrix(-1 0 0 1 409.016 52)" fill="white"/>
<circle cx="3.5" cy="3.5" r="3.5" transform="matrix(-1 0 0 1 975.016 52)" fill="white"/>
<circle cx="3.5" cy="3.5" r="3.5" transform="matrix(-1 0 0 1 125.24 182)" fill="white"/>
<circle cx="3.5" cy="3.5" r="3.5" transform="matrix(-1 0 0 1 691.24 182)" fill="white"/>
<circle cx="3.5" cy="3.5" r="3.5" transform="matrix(-1 0 0 1 409.016 182)" fill="white"/>
<circle cx="3.5" cy="3.5" r="3.5" transform="matrix(-1 0 0 1 975.016 182)" fill="white"/>
<circle cx="3.5" cy="3.5" r="3.5" transform="matrix(-1 0 0 1 125.24 312)" fill="white"/>
<circle cx="3.5" cy="3.5" r="3.5" transform="matrix(-1 0 0 1 691.24 312)" fill="white"/>
<circle cx="3.5" cy="3.5" r="3.5" transform="matrix(-1 0 0 1 409.016 312)" fill="white"/>
<circle cx="3.5" cy="3.5" r="3.5" transform="matrix(-1 0 0 1 975.016 312)" fill="white"/>
<circle cx="3.5" cy="3.5" r="3.5" transform="matrix(-1 0 0 1 196.184 52)" fill="white"/>
<circle cx="3.5" cy="3.5" r="3.5" transform="matrix(-1 0 0 1 762.184 52)" fill="white"/>
<circle cx="3.5" cy="3.5" r="3.5" transform="matrix(-1 0 0 1 479.96 52)" fill="white"/>
<circle cx="3.5" cy="3.5" r="3.5" transform="matrix(-1 0 0 1 1045.96 52)" fill="white"/>
<circle cx="3.5" cy="3.5" r="3.5" transform="matrix(-1 0 0 1 196.184 182)" fill="white"/>
<circle cx="3.5" cy="3.5" r="3.5" transform="matrix(-1 0 0 1 762.184 182)" fill="white"/>
<circle cx="3.5" cy="3.5" r="3.5" transform="matrix(-1 0 0 1 479.96 182)" fill="white"/>
<circle cx="3.5" cy="3.5" r="3.5" transform="matrix(-1 0 0 1 1045.96 182)" fill="white"/>
<circle cx="3.5" cy="3.5" r="3.5" transform="matrix(-1 0 0 1 196.184 312)" fill="white"/>
<circle cx="3.5" cy="3.5" r="3.5" transform="matrix(-1 0 0 1 762.184 312)" fill="white"/>
<circle cx="3.5" cy="3.5" r="3.5" transform="matrix(-1 0 0 1 479.96 312)" fill="white"/>
<circle cx="3.5" cy="3.5" r="3.5" transform="matrix(-1 0 0 1 1045.96 312)" fill="white"/>
<circle cx="3.5" cy="3.5" r="3.5" transform="matrix(-1 0 0 1 267.128 52)" fill="white"/>
<circle cx="3.5" cy="3.5" r="3.5" transform="matrix(-1 0 0 1 833.128 52)" fill="white"/>
<circle cx="3.5" cy="3.5" r="3.5" transform="matrix(-1 0 0 1 550.905 52)" fill="white"/>
<circle cx="3.5" cy="3.5" r="3.5" transform="matrix(-1 0 0 1 1116.9 52)" fill="white"/>
<circle cx="3.5" cy="3.5" r="3.5" transform="matrix(-1 0 0 1 267.128 182)" fill="white"/>
<circle cx="3.5" cy="3.5" r="3.5" transform="matrix(-1 0 0 1 833.128 182)" fill="white"/>
<circle cx="3.5" cy="3.5" r="3.5" transform="matrix(-1 0 0 1 550.905 182)" fill="white"/>
<circle cx="3.5" cy="3.5" r="3.5" transform="matrix(-1 0 0 1 1116.9 182)" fill="white"/>
<circle cx="3.5" cy="3.5" r="3.5" transform="matrix(-1 0 0 1 267.128 312)" fill="white"/>
<circle cx="3.5" cy="3.5" r="3.5" transform="matrix(-1 0 0 1 833.128 312)" fill="white"/>
<circle cx="3.5" cy="3.5" r="3.5" transform="matrix(-1 0 0 1 550.905 312)" fill="white"/>
<circle cx="3.5" cy="3.5" r="3.5" transform="matrix(-1 0 0 1 1116.9 312)" fill="white"/>
<circle cx="3.5" cy="3.5" r="3.5" transform="matrix(-1 0 0 1 54.2961 78)" fill="white"/>
<circle cx="3.5" cy="3.5" r="3.5" transform="matrix(-1 0 0 1 620.296 78)" fill="white"/>
<circle cx="3.5" cy="3.5" r="3.5" transform="matrix(-1 0 0 1 338.072 78)" fill="white"/>
<circle cx="3.5" cy="3.5" r="3.5" transform="matrix(-1 0 0 1 904.072 78)" fill="white"/>
<circle cx="3.5" cy="3.5" r="3.5" transform="matrix(-1 0 0 1 54.2961 208)" fill="white"/>
<circle cx="3.5" cy="3.5" r="3.5" transform="matrix(-1 0 0 1 620.296 208)" fill="white"/>
<circle cx="3.5" cy="3.5" r="3.5" transform="matrix(-1 0 0 1 338.072 208)" fill="white"/>
<circle cx="3.5" cy="3.5" r="3.5" transform="matrix(-1 0 0 1 904.072 208)" fill="white"/>
<circle cx="3.5" cy="3.5" r="3.5" transform="matrix(-1 0 0 1 54.2961 338)" fill="white"/>
<circle cx="3.5" cy="3.5" r="3.5" transform="matrix(-1 0 0 1 620.296 338)" fill="white"/>
<circle cx="3.5" cy="3.5" r="3.5" transform="matrix(-1 0 0 1 338.072 338)" fill="white"/>
<circle cx="3.5" cy="3.5" r="3.5" transform="matrix(-1 0 0 1 904.072 338)" fill="white"/>
<circle cx="3.5" cy="3.5" r="3.5" transform="matrix(-1 0 0 1 125.24 78)" fill="white"/>
<circle cx="3.5" cy="3.5" r="3.5" transform="matrix(-1 0 0 1 691.24 78)" fill="white"/>
<circle cx="3.5" cy="3.5" r="3.5" transform="matrix(-1 0 0 1 409.016 78)" fill="white"/>
<circle cx="3.5" cy="3.5" r="3.5" transform="matrix(-1 0 0 1 975.016 78)" fill="white"/>
<circle cx="3.5" cy="3.5" r="3.5" transform="matrix(-1 0 0 1 125.24 208)" fill="white"/>
<circle cx="3.5" cy="3.5" r="3.5" transform="matrix(-1 0 0 1 691.24 208)" fill="white"/>
<circle cx="3.5" cy="3.5" r="3.5" transform="matrix(-1 0 0 1 409.016 208)" fill="white"/>
<circle cx="3.5" cy="3.5" r="3.5" transform="matrix(-1 0 0 1 975.016 208)" fill="white"/>
<circle cx="3.5" cy="3.5" r="3.5" transform="matrix(-1 0 0 1 125.24 338)" fill="white"/>
<circle cx="3.5" cy="3.5" r="3.5" transform="matrix(-1 0 0 1 691.24 338)" fill="white"/>
<circle cx="3.5" cy="3.5" r="3.5" transform="matrix(-1 0 0 1 409.016 338)" fill="white"/>
<circle cx="3.5" cy="3.5" r="3.5" transform="matrix(-1 0 0 1 975.016 338)" fill="white"/>
<circle cx="3.5" cy="3.5" r="3.5" transform="matrix(-1 0 0 1 196.184 78)" fill="white"/>
<circle cx="3.5" cy="3.5" r="3.5" transform="matrix(-1 0 0 1 762.184 78)" fill="white"/>
<circle cx="3.5" cy="3.5" r="3.5" transform="matrix(-1 0 0 1 479.96 78)" fill="white"/>
<circle cx="3.5" cy="3.5" r="3.5" transform="matrix(-1 0 0 1 1045.96 78)" fill="white"/>
<circle cx="3.5" cy="3.5" r="3.5" transform="matrix(-1 0 0 1 196.184 208)" fill="white"/>
<circle cx="3.5" cy="3.5" r="3.5" transform="matrix(-1 0 0 1 762.184 208)" fill="white"/>
<circle cx="3.5" cy="3.5" r="3.5" transform="matrix(-1 0 0 1 479.96 208)" fill="white"/>
<circle cx="3.5" cy="3.5" r="3.5" transform="matrix(-1 0 0 1 1045.96 208)" fill="white"/>
<circle cx="3.5" cy="3.5" r="3.5" transform="matrix(-1 0 0 1 196.184 338)" fill="white"/>
<circle cx="3.5" cy="3.5" r="3.5" transform="matrix(-1 0 0 1 762.184 338)" fill="white"/>
<circle cx="3.5" cy="3.5" r="3.5" transform="matrix(-1 0 0 1 479.96 338)" fill="white"/>
<circle cx="3.5" cy="3.5" r="3.5" transform="matrix(-1 0 0 1 1045.96 338)" fill="white"/>
<circle cx="3.5" cy="3.5" r="3.5" transform="matrix(-1 0 0 1 267.128 78)" fill="white"/>
<circle cx="3.5" cy="3.5" r="3.5" transform="matrix(-1 0 0 1 833.128 78)" fill="white"/>
<circle cx="3.5" cy="3.5" r="3.5" transform="matrix(-1 0 0 1 550.905 78)" fill="white"/>
<circle cx="3.5" cy="3.5" r="3.5" transform="matrix(-1 0 0 1 1116.9 78)" fill="white"/>
<circle cx="3.5" cy="3.5" r="3.5" transform="matrix(-1 0 0 1 267.128 208)" fill="white"/>
<circle cx="3.5" cy="3.5" r="3.5" transform="matrix(-1 0 0 1 833.128 208)" fill="white"/>
<circle cx="3.5" cy="3.5" r="3.5" transform="matrix(-1 0 0 1 550.905 208)" fill="white"/>
<circle cx="3.5" cy="3.5" r="3.5" transform="matrix(-1 0 0 1 1116.9 208)" fill="white"/>
<circle cx="3.5" cy="3.5" r="3.5" transform="matrix(-1 0 0 1 267.128 338)" fill="white"/>
<circle cx="3.5" cy="3.5" r="3.5" transform="matrix(-1 0 0 1 833.128 338)" fill="white"/>
<circle cx="3.5" cy="3.5" r="3.5" transform="matrix(-1 0 0 1 550.905 338)" fill="white"/>
<circle cx="3.5" cy="3.5" r="3.5" transform="matrix(-1 0 0 1 1116.9 338)" fill="white"/>
<circle cx="3.5" cy="3.5" r="3.5" transform="matrix(-1 0 0 1 54.2961 104)" fill="white"/>
<circle cx="3.5" cy="3.5" r="3.5" transform="matrix(-1 0 0 1 620.296 104)" fill="white"/>
<circle cx="3.5" cy="3.5" r="3.5" transform="matrix(-1 0 0 1 338.072 104)" fill="white"/>
<circle cx="3.5" cy="3.5" r="3.5" transform="matrix(-1 0 0 1 904.072 104)" fill="white"/>
<circle cx="3.5" cy="3.5" r="3.5" transform="matrix(-1 0 0 1 54.2961 234)" fill="white"/>
<circle cx="3.5" cy="3.5" r="3.5" transform="matrix(-1 0 0 1 620.296 234)" fill="white"/>
<circle cx="3.5" cy="3.5" r="3.5" transform="matrix(-1 0 0 1 338.072 234)" fill="white"/>
<circle cx="3.5" cy="3.5" r="3.5" transform="matrix(-1 0 0 1 904.072 234)" fill="white"/>
<circle cx="3.5" cy="3.5" r="3.5" transform="matrix(-1 0 0 1 125.24 104)" fill="white"/>
<circle cx="3.5" cy="3.5" r="3.5" transform="matrix(-1 0 0 1 691.24 104)" fill="white"/>
<circle cx="3.5" cy="3.5" r="3.5" transform="matrix(-1 0 0 1 409.016 104)" fill="white"/>
<circle cx="3.5" cy="3.5" r="3.5" transform="matrix(-1 0 0 1 975.016 104)" fill="white"/>
<circle cx="3.5" cy="3.5" r="3.5" transform="matrix(-1 0 0 1 125.24 234)" fill="white"/>
<circle cx="3.5" cy="3.5" r="3.5" transform="matrix(-1 0 0 1 691.24 234)" fill="white"/>
<circle cx="3.5" cy="3.5" r="3.5" transform="matrix(-1 0 0 1 409.016 234)" fill="white"/>
<circle cx="3.5" cy="3.5" r="3.5" transform="matrix(-1 0 0 1 975.016 234)" fill="white"/>
<circle cx="3.5" cy="3.5" r="3.5" transform="matrix(-1 0 0 1 196.184 104)" fill="white"/>
<circle cx="3.5" cy="3.5" r="3.5" transform="matrix(-1 0 0 1 762.184 104)" fill="white"/>
<circle cx="3.5" cy="3.5" r="3.5" transform="matrix(-1 0 0 1 479.96 104)" fill="white"/>
<circle cx="3.5" cy="3.5" r="3.5" transform="matrix(-1 0 0 1 1045.96 104)" fill="white"/>
<circle cx="3.5" cy="3.5" r="3.5" transform="matrix(-1 0 0 1 196.184 234)" fill="white"/>
<circle cx="3.5" cy="3.5" r="3.5" transform="matrix(-1 0 0 1 762.184 234)" fill="white"/>
<circle cx="3.5" cy="3.5" r="3.5" transform="matrix(-1 0 0 1 479.96 234)" fill="white"/>
<circle cx="3.5" cy="3.5" r="3.5" transform="matrix(-1 0 0 1 1045.96 234)" fill="white"/>
<circle cx="3.5" cy="3.5" r="3.5" transform="matrix(-1 0 0 1 267.128 104)" fill="white"/>
<circle cx="3.5" cy="3.5" r="3.5" transform="matrix(-1 0 0 1 833.128 104)" fill="white"/>
<circle cx="3.5" cy="3.5" r="3.5" transform="matrix(-1 0 0 1 550.905 104)" fill="white"/>
<circle cx="3.5" cy="3.5" r="3.5" transform="matrix(-1 0 0 1 1116.9 104)" fill="white"/>
<circle cx="3.5" cy="3.5" r="3.5" transform="matrix(-1 0 0 1 267.128 234)" fill="white"/>
<circle cx="3.5" cy="3.5" r="3.5" transform="matrix(-1 0 0 1 833.128 234)" fill="white"/>
<circle cx="3.5" cy="3.5" r="3.5" transform="matrix(-1 0 0 1 550.905 234)" fill="white"/>
<circle cx="3.5" cy="3.5" r="3.5" transform="matrix(-1 0 0 1 1116.9 234)" fill="white"/>
<circle cx="3.5" cy="3.5" r="3.5" transform="matrix(-1 0 0 1 30.6479 104)" fill="white"/>
<circle cx="3.5" cy="3.5" r="3.5" transform="matrix(-1 0 0 1 596.648 104)" fill="white"/>
<circle cx="3.5" cy="3.5" r="3.5" transform="matrix(-1 0 0 1 314.424 104)" fill="white"/>
<circle cx="3.5" cy="3.5" r="3.5" transform="matrix(-1 0 0 1 880.424 104)" fill="white"/>
<circle cx="3.5" cy="3.5" r="3.5" transform="matrix(-1 0 0 1 30.6479 234)" fill="white"/>
<circle cx="3.5" cy="3.5" r="3.5" transform="matrix(-1 0 0 1 596.648 234)" fill="white"/>
<circle cx="3.5" cy="3.5" r="3.5" transform="matrix(-1 0 0 1 314.424 234)" fill="white"/>
<circle cx="3.5" cy="3.5" r="3.5" transform="matrix(-1 0 0 1 880.424 234)" fill="white"/>
<circle cx="3.5" cy="3.5" r="3.5" transform="matrix(-1 0 0 1 101.592 104)" fill="white"/>
<circle cx="3.5" cy="3.5" r="3.5" transform="matrix(-1 0 0 1 667.592 104)" fill="white"/>
<circle cx="3.5" cy="3.5" r="3.5" transform="matrix(-1 0 0 1 385.368 104)" fill="white"/>
<circle cx="3.5" cy="3.5" r="3.5" transform="matrix(-1 0 0 1 951.368 104)" fill="white"/>
<circle cx="3.5" cy="3.5" r="3.5" transform="matrix(-1 0 0 1 101.592 234)" fill="white"/>
<circle cx="3.5" cy="3.5" r="3.5" transform="matrix(-1 0 0 1 667.592 234)" fill="white"/>
<circle cx="3.5" cy="3.5" r="3.5" transform="matrix(-1 0 0 1 385.368 234)" fill="white"/>
<circle cx="3.5" cy="3.5" r="3.5" transform="matrix(-1 0 0 1 951.368 234)" fill="white"/>
<circle cx="3.5" cy="3.5" r="3.5" transform="matrix(-1 0 0 1 172.536 104)" fill="white"/>
<circle cx="3.5" cy="3.5" r="3.5" transform="matrix(-1 0 0 1 738.536 104)" fill="white"/>
<circle cx="3.5" cy="3.5" r="3.5" transform="matrix(-1 0 0 1 456.312 104)" fill="white"/>
<circle cx="3.5" cy="3.5" r="3.5" transform="matrix(-1 0 0 1 1022.31 104)" fill="white"/>
<circle cx="3.5" cy="3.5" r="3.5" transform="matrix(-1 0 0 1 172.536 234)" fill="white"/>
<circle cx="3.5" cy="3.5" r="3.5" transform="matrix(-1 0 0 1 738.536 234)" fill="white"/>
<circle cx="3.5" cy="3.5" r="3.5" transform="matrix(-1 0 0 1 456.312 234)" fill="white"/>
<circle cx="3.5" cy="3.5" r="3.5" transform="matrix(-1 0 0 1 1022.31 234)" fill="white"/>
<circle cx="3.5" cy="3.5" r="3.5" transform="matrix(-1 0 0 1 243.48 104)" fill="white"/>
<circle cx="3.5" cy="3.5" r="3.5" transform="matrix(-1 0 0 1 809.48 104)" fill="white"/>
<circle cx="3.5" cy="3.5" r="3.5" transform="matrix(-1 0 0 1 527.257 104)" fill="white"/>
<circle cx="3.5" cy="3.5" r="3.5" transform="matrix(-1 0 0 1 1093.26 104)" fill="white"/>
<circle cx="3.5" cy="3.5" r="3.5" transform="matrix(-1 0 0 1 243.48 234)" fill="white"/>
<circle cx="3.5" cy="3.5" r="3.5" transform="matrix(-1 0 0 1 809.48 234)" fill="white"/>
<circle cx="3.5" cy="3.5" r="3.5" transform="matrix(-1 0 0 1 527.257 234)" fill="white"/>
<circle cx="3.5" cy="3.5" r="3.5" transform="matrix(-1 0 0 1 1093.26 234)" fill="white"/>
</g>
</svg>
