<svg width="60" height="91" viewBox="0 0 60 91" fill="none" xmlns="http://www.w3.org/2000/svg">
<g clip-path="url(#clip0_182_96)">
<path d="M15.0031 91.0001C23.2814 91.0001 30.0001 84.2054 30.0001 75.8334V60.6667H15.0031C6.72476 60.6667 0.00610352 67.4614 0.00610352 75.8334C0.00610352 84.2054 6.72476 91.0001 15.0031 91.0001Z" fill="#0ACF83"/>
<path d="M0.00610352 45.4999C0.00610352 37.1279 6.72476 30.3333 15.0031 30.3333H30.0001V60.6666H15.0031C6.72476 60.6666 0.00610352 53.8719 0.00610352 45.4999Z" fill="#A259FF"/>
<path d="M0.00610352 15.1667C0.00610352 6.79467 6.72476 0 15.0031 0H30.0001V30.3333H15.0031C6.72476 30.3333 0.00610352 23.5387 0.00610352 15.1667Z" fill="#F24E1E"/>
<path d="M30 0H44.997C53.2753 0 59.994 6.79467 59.994 15.1667C59.994 23.5387 53.2753 30.3333 44.997 30.3333H30V0Z" fill="#FF7262"/>
<path d="M59.994 45.4999C59.994 53.8719 53.2753 60.6666 44.997 60.6666C36.7187 60.6666 30 53.8719 30 45.4999C30 37.1279 36.7187 30.3333 44.997 30.3333C53.2753 30.3333 59.994 37.1279 59.994 45.4999Z" fill="#1ABCFE"/>
</g>
<defs>
<clipPath id="clip0_182_96">
<rect width="60" height="91" fill="white"/>
</clipPath>
</defs>
</svg>
