<svg width="15" height="23" viewBox="0 0 15 23" fill="none" xmlns="http://www.w3.org/2000/svg">
<path d="M3.537 23C1.604 23 0.0370002 21.433 0.0370002 19.5C0.0370002 17.567 1.604 16 3.537 16H7.037V19.5C7.037 21.433 5.47 23 3.537 23ZM11.5 7H8V0H11.5C13.433 0 15 1.567 15 3.5C15 5.433 13.433 7 11.5 7ZM3.5 7H7V0H3.5C1.567 0 0 1.567 0 3.5C0 5.433 1.567 7 3.5 7ZM3.5 15H7V8H3.5C1.567 8 0 9.567 0 11.5C0 13.433 1.567 15 3.5 15ZM11 8C10.2044 8 9.44129 8.31607 8.87868 8.87868C8.31607 9.44129 8 10.2044 8 11C8 11.7956 8.31607 12.5587 8.87868 13.1213C9.44129 13.6839 10.2044 14 11 14C11.7956 14 12.5587 13.6839 13.1213 13.1213C13.6839 12.5587 14 11.7956 14 11C14 10.2044 13.6839 9.44129 13.1213 8.87868C12.5587 8.31607 11.7956 8 11 8Z" fill="#F9F9F9"/>
</svg>
