<svg width="45" height="45" viewBox="0 0 45 45" fill="none" xmlns="http://www.w3.org/2000/svg">
<rect width="45" height="45" rx="4" fill="#434343"/>
<rect x="9.20825" y="10.4165" width="26.5833" height="26.5833" rx="13.2917" fill="white"/>
<path fill-rule="evenodd" clip-rule="evenodd" d="M22.512 8C14.4872 8 8 14.535 8 22.6198C8 29.0823 12.1566 34.5528 17.9229 36.4889C18.6438 36.6345 18.9079 36.1743 18.9079 35.7873C18.9079 35.4484 18.8841 34.2866 18.8841 33.0761C14.8473 33.9477 14.0066 31.3334 14.0066 31.3334C13.3579 29.639 12.3966 29.2035 12.3966 29.2035C11.0753 28.3079 12.4929 28.3079 12.4929 28.3079C13.9585 28.4048 14.7276 29.8086 14.7276 29.8086C16.0248 32.0353 18.1151 31.4061 18.956 31.0188C19.076 30.0748 19.4607 29.4213 19.8692 29.0583C16.6495 28.7194 13.2619 27.4608 13.2619 21.8451C13.2619 20.2476 13.8382 18.9406 14.7513 17.9241C14.6072 17.5611 14.1026 16.0601 14.8957 14.0512C14.8957 14.0512 16.121 13.6638 18.8839 15.5518C20.0667 15.2318 21.2866 15.069 22.512 15.0676C23.7373 15.0676 24.9864 15.2373 26.1398 15.5518C28.903 13.6638 30.1283 14.0512 30.1283 14.0512C30.9214 16.0601 30.4165 17.5611 30.2724 17.9241C31.2096 18.9406 31.7621 20.2476 31.7621 21.8451C31.7621 27.4608 28.3745 28.695 25.1308 29.0583C25.6595 29.5181 26.1158 30.3894 26.1158 31.7691C26.1158 33.7296 26.092 35.3031 26.092 35.787C26.092 36.1743 26.3564 36.6345 27.077 36.4892C32.8433 34.5525 36.9999 29.0823 36.9999 22.6198C37.0237 14.535 30.5127 8 22.512 8Z" fill="#434343"/>
</svg>
