<svg width="93" height="93" viewBox="0 0 93 93" fill="none" xmlns="http://www.w3.org/2000/svg">
<g clip-path="url(#clip0_182_93)">
<rect width="93" height="93" rx="46.5" fill="white"/>
<path d="M36.932 0.733131C24.244 3.56059 13.844 10.5876 6.68878 21.2322C-5.83285 39.9848 -3.33684 65.1408 12.6376 81.1907C17.4216 86.014 24.7016 90.671 30.1928 92.459C32.2312 93.1243 32.4808 93.1243 33.396 92.5006C34.3944 91.8353 34.436 91.6689 34.436 86.8872V81.9808L30.7752 82.1887C26.4904 82.3966 23.1624 81.6481 21.1656 79.9433C20.4584 79.3612 19.0856 77.3654 18.1288 75.5358C16.548 72.4589 15.3832 71.0452 12.1384 68.1762C11.0568 67.2198 11.0152 67.1782 11.764 66.6377C13.5528 65.3071 17.172 66.5961 19.46 69.3404C23.4536 74.2053 24.9928 75.4943 27.2808 75.9932C29.3192 76.409 31.1912 76.2427 34.02 75.4111C34.3944 75.2864 34.8936 74.4132 35.1432 73.4153C35.3928 72.4589 36.0584 71.0036 36.5993 70.2136L37.5977 68.7583L34.228 68.093C27.156 66.6377 22.788 64.1013 19.9176 59.777C17.2552 55.7853 16.3816 52.3341 16.34 45.8892C16.34 39.8185 17.0056 37.3237 19.6264 33.9141C20.7912 32.4172 20.916 31.9598 20.5832 31.0867C19.9592 29.5898 20.1256 23.2696 20.7912 21.3569C21.332 19.9432 21.6232 19.6937 22.7464 19.5689C24.6184 19.361 28.1128 20.5669 31.6488 22.5627L34.6856 24.3091L37.3481 23.6854C41.1337 22.8122 52.4905 22.8538 55.9017 23.6854L58.4809 24.3507L60.8937 22.8954C64.0969 20.9827 68.1737 19.4858 70.2121 19.4858C71.8345 19.4858 71.8345 19.5274 72.5001 21.648C73.2073 24.1012 73.3321 28.5503 72.7081 30.6708C72.3753 31.9183 72.4585 32.2925 73.3737 33.4983C77.9081 39.4858 78.4073 49.4235 74.5801 57.5732C72.0009 62.9371 66.5513 66.6793 59.2297 68.0514L55.7353 68.7167L57.0249 71.0036L58.3561 73.3321L58.4809 82.6045L58.6473 91.8768L59.6873 92.5421C60.6441 93.1658 60.8521 93.1658 62.8489 92.459C66.1769 91.3363 71.8761 88.2594 74.9961 85.8893C93.5498 72.0015 99.5402 47.095 89.265 26.3881C83.233 14.2051 71.8345 4.84956 58.7721 1.35683C53.0729 -0.140053 42.3401 -0.472694 36.932 0.733131Z" fill="black"/>
</g>
<defs>
<clipPath id="clip0_182_93">
<rect width="93" height="93" rx="46.5" fill="white"/>
</clipPath>
</defs>
</svg>
