<svg width="45" height="45" viewBox="0 0 45 45" fill="none" xmlns="http://www.w3.org/2000/svg">
<rect width="45" height="45" rx="4" fill="#434343"/>
<g clip-path="url(#clip0_267_52)">
<path d="M22.2553 15.9294C18.5642 15.9294 15.587 18.8601 15.587 22.4935C15.587 26.1269 18.5642 29.0576 22.2553 29.0576C25.9463 29.0576 28.9236 26.1269 28.9236 22.4935C28.9236 18.8601 25.9463 15.9294 22.2553 15.9294ZM22.2553 26.7611C19.87 26.7611 17.92 24.8472 17.92 22.4935C17.92 20.1398 19.8642 18.226 22.2553 18.226C24.6463 18.226 26.5905 20.1398 26.5905 22.4935C26.5905 24.8472 24.6405 26.7611 22.2553 26.7611ZM30.7517 15.6609C30.7517 16.5121 30.0553 17.192 29.1963 17.192C28.3316 17.192 27.641 16.5064 27.641 15.6609C27.641 14.8154 28.3374 14.1299 29.1963 14.1299C30.0553 14.1299 30.7517 14.8154 30.7517 15.6609ZM35.1682 17.2148C35.0695 15.1639 34.5936 13.3472 33.0673 11.8504C31.5468 10.3536 29.7012 9.88519 27.6178 9.78236C25.4704 9.66239 19.0343 9.66239 16.887 9.78236C14.8093 9.87948 12.9638 10.3479 11.4374 11.8447C9.91108 13.3415 9.44099 15.1582 9.33652 17.2091C9.21465 19.3229 9.21465 25.6585 9.33652 27.7722C9.43518 29.8232 9.91108 31.6399 11.4374 33.1366C12.9638 34.6334 14.8035 35.1019 16.887 35.2047C19.0343 35.3247 25.4704 35.3247 27.6178 35.2047C29.7012 35.1076 31.5468 34.6391 33.0673 33.1366C34.5878 31.6399 35.0637 29.8232 35.1682 27.7722C35.2901 25.6585 35.2901 19.3286 35.1682 17.2148ZM32.3941 30.0403C31.9414 31.16 31.0651 32.0226 29.9218 32.474C28.2097 33.1424 24.1472 32.9881 22.2553 32.9881C20.3633 32.9881 16.295 33.1366 14.5888 32.474C13.4513 32.0283 12.5749 31.1657 12.1164 30.0403C11.4374 28.355 11.5941 24.3559 11.5941 22.4935C11.5941 20.6311 11.4432 16.6264 12.1164 14.9468C12.5691 13.8271 13.4454 12.9644 14.5888 12.5131C16.3008 11.8447 20.3633 11.999 22.2553 11.999C24.1472 11.999 28.2155 11.8504 29.9218 12.5131C31.0593 12.9587 31.9356 13.8214 32.3941 14.9468C33.0731 16.6321 32.9164 20.6311 32.9164 22.4935C32.9164 24.3559 33.0731 28.3607 32.3941 30.0403Z" fill="white"/>
</g>
<defs>
<clipPath id="clip0_267_52">
<rect x="9.25" y="7.87451" width="26" height="29.25" rx="4" fill="white"/>
</clipPath>
</defs>
</svg>
