<svg width="205" height="123" viewBox="0 0 205 123" fill="none" xmlns="http://www.w3.org/2000/svg">
<mask id="mask0_182_54" style="mask-type:luminance" maskUnits="userSpaceOnUse" x="103" y="21" width="21" height="45">
<path d="M123.118 32.3715L103.354 21.7708V65.2204L111.25 60.9191V48.6939L117.213 51.9342L117.179 43.5703L111.25 40.3904V35.5342L123.145 41.9861L123.118 32.3715Z" fill="white"/>
</mask>
<g mask="url(#mask0_182_54)">
<path d="M128.523 21.6125H79.9897V65.275H128.523V21.6125Z" fill="url(#paint0_linear_182_54)"/>
</g>
<mask id="mask1_182_54" style="mask-type:luminance" maskUnits="userSpaceOnUse" x="81" y="21" width="21" height="45">
<path d="M81.8149 32.3715L101.578 21.7708V65.2204L93.6826 60.9191V35.5342L81.7874 41.9861L81.8149 32.3715Z" fill="white"/>
</mask>
<g mask="url(#mask1_182_54)">
<path d="M128.195 21.6125H79.6619V65.275H128.195V21.6125Z" fill="url(#paint1_linear_182_54)"/>
</g>
<path d="M42.056 82.69H34.9139V101.157H30.9785V82.69H23.9099V79.6826H42.056V82.69Z" fill="white"/>
<path d="M46.7878 101.451C44.3684 101.451 42.4073 100.736 40.9045 99.3057C39.4018 97.8758 38.6504 95.9705 38.6504 93.5899V93.1557C38.6235 91.6807 38.9588 90.2197 39.6305 88.8861C40.2355 87.6851 41.1914 86.6701 42.3868 85.9591C43.5712 85.2605 44.9451 84.8971 46.3438 84.9126C48.6591 84.9126 50.4477 85.6055 51.7095 86.9913C52.9713 88.3772 53.6001 90.3361 53.5961 92.8682V94.3058H42.4971C42.6135 95.6264 43.0831 96.6692 43.9059 97.434C44.3124 97.8138 44.7973 98.1117 45.3308 98.3094C45.8642 98.5072 46.4351 98.6006 47.0083 98.584C47.8372 98.5999 48.658 98.4284 49.4015 98.0842C50.145 97.7399 50.7895 97.2329 51.2807 96.6059L53.3388 98.4489C52.6574 99.4038 51.7162 100.17 50.6131 100.669C49.4199 101.204 48.1103 101.472 46.7878 101.451ZM46.3315 87.7791C45.8536 87.7632 45.378 87.8476 44.9393 88.0261C44.5006 88.2047 44.1099 88.473 43.7956 88.8113C43.1484 89.4975 42.7401 90.4559 42.5706 91.6865H49.8443V91.4306C49.7606 90.2326 49.4207 89.326 48.8245 88.7107C48.506 88.3947 48.118 88.1476 47.6875 87.9867C47.2569 87.8258 46.7942 87.755 46.3315 87.7791Z" fill="white"/>
<path d="M60.1101 85.1972L60.2203 87.0402C60.8138 86.3498 61.5694 85.7977 62.428 85.4271C63.2866 85.0565 64.2249 84.8775 65.1695 84.9039C68.7099 84.9039 70.5107 86.8063 70.572 90.6112V101.157H66.7651V90.8067C66.7651 89.7917 66.5324 89.0442 66.0669 88.5554C65.6014 88.0666 64.8418 87.8251 63.7791 87.8251C62.2416 87.8251 61.0952 88.4797 60.3398 89.7889V101.146H56.5115V85.1972H60.1101Z" fill="white"/>
<path d="M82.9603 96.8214C82.9735 96.5296 82.9026 96.2398 82.7548 95.9827C82.6071 95.7256 82.3882 95.5108 82.1212 95.3608C81.5597 95.0235 80.6297 94.7283 79.3311 94.4753C78.2094 94.2733 77.1175 93.946 76.0786 93.5006C74.1736 92.6361 73.2212 91.3825 73.2212 89.7399C73.2149 89.0693 73.3781 88.4069 73.6976 87.8071C74.017 87.2073 74.4835 86.6872 75.0587 86.2897C76.296 85.3638 77.8672 84.9019 79.7721 84.9038C81.8016 84.9038 83.4432 85.3753 84.6968 86.3184C85.2992 86.7468 85.7848 87.3032 86.1138 87.942C86.4429 88.5807 86.6059 89.2836 86.5895 89.9929H82.7735C82.7817 89.6664 82.7127 89.3423 82.5713 89.044C82.4299 88.7457 82.2196 88.4805 81.9558 88.2678C81.3512 87.7902 80.5767 87.5448 79.7874 87.5806C79.0595 87.5499 78.3406 87.7416 77.7385 88.1269C77.4871 88.2891 77.2826 88.5076 77.1436 88.7626C77.0046 89.0176 76.9354 89.3011 76.9423 89.5875C76.9346 89.8436 76.9991 90.097 77.1292 90.3222C77.2594 90.5473 77.4506 90.7362 77.6834 90.8698C78.1734 91.1746 79.1678 91.4822 80.6664 91.7927C81.8892 92.0144 83.0755 92.3866 84.1946 92.8997C84.9583 93.2524 85.6131 93.783 86.0965 94.4408C86.524 95.0961 86.737 95.855 86.709 96.623C86.722 97.3064 86.5552 97.9822 86.2235 98.5905C85.8917 99.1989 85.4052 99.721 84.8071 100.111C83.5432 101.002 81.8833 101.447 79.8273 101.445C78.5468 101.467 77.2767 101.225 76.1062 100.737C75.085 100.318 74.205 99.6451 73.5611 98.7909C72.9659 98.0122 72.6447 97.0783 72.6423 96.1199H76.3512C76.3548 96.4966 76.4483 96.8678 76.6248 97.2061C76.8013 97.5444 77.0563 97.8413 77.371 98.075C78.0985 98.5606 78.9786 98.8026 79.8701 98.7622C80.8747 98.7622 81.6393 98.582 82.164 98.2216C82.4108 98.0693 82.613 97.8613 82.7521 97.6167C82.8912 97.3721 82.9628 97.0987 82.9603 96.8214Z" fill="white"/>
<path d="M88.6815 93.0292C88.6562 91.5673 88.995 90.12 89.6707 88.8027C90.2761 87.6045 91.2431 86.5998 92.4516 85.9131C93.6984 85.2272 95.1229 84.8779 96.5678 84.9039C98.8627 84.9039 100.724 85.5969 102.151 86.9827C103.578 88.3685 104.351 90.2067 104.469 92.4973L104.485 93.3397C104.511 94.7967 104.179 96.2398 103.517 97.5576C102.918 98.7487 101.959 99.7485 100.76 100.433C99.502 101.126 98.0634 101.478 96.6045 101.451C94.2054 101.451 92.2862 100.701 90.8468 99.2022C89.4073 97.7033 88.6876 95.705 88.6876 93.2075L88.6815 93.0292ZM92.4914 93.3397C92.4914 94.9824 92.8528 96.2676 93.5756 97.1953C93.9145 97.6456 94.3681 98.0091 94.895 98.2527C95.4219 98.4963 96.0054 98.6122 96.5923 98.5898C97.18 98.6117 97.7641 98.4934 98.29 98.246C98.8159 97.9987 99.2665 97.6303 99.5998 97.1752C100.318 96.2283 100.678 94.8463 100.678 93.0292C100.678 91.4153 100.308 90.1368 99.5691 89.1937C99.2231 88.7564 98.7733 88.4008 98.2554 88.1551C97.7374 87.9095 97.1656 87.7806 96.5854 87.7786C96.0051 87.7767 95.4323 87.9017 94.9125 88.1439C94.3927 88.386 93.9402 88.7386 93.5909 89.1736C92.8579 90.1032 92.4914 91.4919 92.4914 93.3397Z" fill="white"/>
<path d="M115.969 88.472C115.456 88.393 114.937 88.3536 114.417 88.3541C112.665 88.3541 111.486 88.9838 110.879 90.2431V101.169H107.063V85.1972H110.708L110.803 86.9827C111.724 85.5968 113.001 84.9039 114.634 84.9039C115.094 84.8908 115.552 84.9601 115.985 85.108L115.969 88.472Z" fill="white"/>
<path d="M131.932 92.0574H122.726V101.157H118.744V79.6826H133.276V82.69H122.726V89.0758H131.932V92.0574Z" fill="white"/>
<path d="M139.475 101.157H135.656V79.6423H139.475V101.157Z" fill="white"/>
<path d="M142.271 93.0292C142.247 91.5674 142.586 90.1205 143.26 88.8027C143.867 87.6051 144.834 86.6005 146.041 85.9131C147.288 85.2272 148.713 84.8779 150.157 84.9039C152.45 84.9039 154.312 85.5969 155.744 86.9827C157.175 88.3685 157.948 90.2067 158.062 92.4973V93.3397C158.095 94.7955 157.77 96.2389 157.113 97.5576C156.516 98.75 155.557 99.7502 154.356 100.433C153.099 101.126 151.661 101.479 150.203 101.451C147.802 101.451 145.882 100.701 144.443 99.2022C143.003 97.7033 142.289 95.705 142.299 93.2074L142.271 93.0292ZM146.087 93.3397C146.087 94.9824 146.449 96.2676 147.171 97.1953C147.525 97.6308 147.982 97.9833 148.506 98.2253C149.029 98.4674 149.605 98.5923 150.189 98.5903C150.772 98.5884 151.347 98.4596 151.869 98.2141C152.391 97.9686 152.845 97.613 153.196 97.1752C153.912 96.2283 154.271 94.8463 154.271 93.0292C154.271 91.4153 153.902 90.1368 153.165 89.1937C152.828 88.7419 152.376 88.3759 151.85 88.129C151.325 87.882 150.742 87.7618 150.154 87.7791C149.575 87.7629 149.001 87.8818 148.483 88.1252C147.965 88.3686 147.52 88.7288 147.187 89.1736C146.454 90.1032 146.087 91.4919 146.087 93.3397Z" fill="white"/>
<path d="M175.305 96.2149L178.006 85.1973H181.73L177.097 101.157H173.957L170.313 90.1972L166.73 101.157H163.584L158.95 85.1973H162.675L165.431 96.0971L168.919 85.1973H171.795L175.305 96.2149Z" fill="white"/>
<defs>
<linearGradient id="paint0_linear_182_54" x1="79.9897" y1="43.4438" x2="128.523" y2="43.4438" gradientUnits="userSpaceOnUse">
<stop stop-color="#FF6F00"/>
<stop offset="1" stop-color="#FFA800"/>
</linearGradient>
<linearGradient id="paint1_linear_182_54" x1="79.6619" y1="43.4438" x2="128.195" y2="43.4438" gradientUnits="userSpaceOnUse">
<stop stop-color="#FF6F00"/>
<stop offset="1" stop-color="#FFA800"/>
</linearGradient>
</defs>
</svg>
