<svg width="44" height="44" viewBox="0 0 44 44" fill="none" xmlns="http://www.w3.org/2000/svg">
<rect width="44" height="44" rx="4" fill="#434343"/>
<g clip-path="url(#clip0_267_60)">
<path d="M37.2499 13.7706C36.1546 14.2329 34.9928 14.5363 33.8032 14.6708C35.0423 13.9633 35.9937 12.8429 36.4417 11.5079C35.2638 12.1739 33.975 12.6431 32.6311 12.8953C31.5364 11.7842 29.9769 11.0898 28.2508 11.0898C24.9367 11.0898 22.2497 13.6496 22.2497 16.8067C22.2497 17.2549 22.3028 17.6911 22.405 18.1097C17.4177 17.8712 12.9959 15.5952 10.0361 12.1363C9.51962 12.9807 9.22369 13.9629 9.22369 15.0105C9.22369 16.994 10.2832 18.7437 11.8933 19.769C10.9404 19.7406 10.0084 19.4954 9.17513 19.0539C9.17479 19.0778 9.17479 19.1018 9.17479 19.1258C9.17479 21.8958 11.2433 24.2065 13.9885 24.7317C13.1048 24.9606 12.1779 24.9941 11.2785 24.8296C12.0421 27.1009 14.2583 28.7537 16.8842 28.8C14.8304 30.3333 12.2428 31.2473 9.43141 31.2473C8.94696 31.2473 8.46936 31.2202 7.99988 31.1674C10.6556 32.7895 13.8099 33.736 17.1988 33.736C28.2369 33.736 34.2728 25.0245 34.2728 17.4697C34.2728 17.2218 34.2671 16.9752 34.2554 16.7301C35.4302 15.921 36.4443 14.9188 37.2499 13.7706Z" fill="white"/>
</g>
<defs>
<clipPath id="clip0_267_60">
<rect x="8" y="11" width="29.25" height="22.75" rx="4" fill="white"/>
</clipPath>
</defs>
</svg>
